<svg xmlns="http://www.w3.org/2000/svg" viewBox="0 0 731 123" width="731" height="123" aria-label="Contribution spider web">
<defs>
  <filter id="sg" x="-30%" y="-30%" width="160%" height="160%"><feGaussianBlur in="SourceGraphic" stdDeviation="1.3" result="b"/><feMerge><feMergeNode in="b"/><feMergeNode in="SourceGraphic"/></feMerge></filter>
  <filter id="sh" x="-80%" y="-80%" width="260%" height="260%"><feGaussianBlur in="SourceGraphic" stdDeviation="3.0" result="b"/><feMerge><feMergeNode in="b"/><feMergeNode in="SourceGraphic"/></feMerge></filter>
</defs>
<style>@keyframes sm{0.00%{transform:translate(568.0px,14.0px)}4.23%{transform:translate(598.0px,29.0px)}8.99%{transform:translate(598.0px,49.0px)}12.17%{transform:translate(598.0px,29.0px)}12.17%{transform:translate(598.0px,36.0px)}28.04%{transform:translate(598.0px,36.0px)}31.75%{transform:translate(598.0px,29.0px)}31.75%{transform:translate(598.0px,43.0px)}47.62%{transform:translate(598.0px,43.0px)}51.32%{transform:translate(598.0px,29.0px)}51.32%{transform:translate(598.0px,49.0px)}67.20%{transform:translate(598.0px,49.0px)}70.90%{transform:translate(598.0px,29.0px)}100.00%{transform:translate(598.0px,29.0px)}}</style>
<rect width="731" height="123" rx="8" fill="#ffffff"/>
<g font-family="'Segoe UI',system-ui,sans-serif" font-size="9" fill="#57606a">
  <text x="34" y="15">Jun</text>
  <text x="86" y="15">Jul</text>
  <text x="138" y="15">Aug</text>
  <text x="203" y="15">Sep</text>
  <text x="255" y="15">Oct</text>
  <text x="307" y="15">Nov</text>
  <text x="372" y="15">Dec</text>
  <text x="424" y="15">Jan</text>
  <text x="476" y="15">Feb</text>
  <text x="528" y="15">Mar</text>
  <text x="593" y="15">Apr</text>
  <text x="645" y="15">May</text>
  <text x="710" y="15">Jun</text>
  <text x="30" y="45.0" text-anchor="end">Mon</text>
  <text x="30" y="71.0" text-anchor="end">Wed</text>
  <text x="30" y="97.0" text-anchor="end">Fri</text>
</g>
<g>
  <rect x="34" y="24" width="10" height="10" rx="2" fill="#ebedf0"/>
  <rect x="34" y="37" width="10" height="10" rx="2" fill="#ebedf0"/>
  <rect x="34" y="50" width="10" height="10" rx="2" fill="#ebedf0"/>
  <rect x="34" y="63" width="10" height="10" rx="2" fill="#ebedf0"/>
  <rect x="34" y="76" width="10" height="10" rx="2" fill="#ebedf0"/>
  <rect x="34" y="89" width="10" height="10" rx="2" fill="#ebedf0"/>
  <rect x="34" y="102" width="10" height="10" rx="2" fill="#ebedf0"/>
  <rect x="47" y="24" width="10" height="10" rx="2" fill="#ebedf0"/>
  <rect x="47" y="37" width="10" height="10" rx="2" fill="#ebedf0"/>
  <rect x="47" y="50" width="10" height="10" rx="2" fill="#ebedf0"/>
  <rect x="47" y="63" width="10" height="10" rx="2" fill="#ebedf0"/>
  <rect x="47" y="76" width="10" height="10" rx="2" fill="#ebedf0"/>
  <rect x="47" y="89" width="10" height="10" rx="2" fill="#ebedf0"/>
  <rect x="47" y="102" width="10" height="10" rx="2" fill="#ebedf0"/>
  <rect x="60" y="24" width="10" height="10" rx="2" fill="#ebedf0"/>
  <rect x="60" y="37" width="10" height="10" rx="2" fill="#ebedf0"/>
  <rect x="60" y="50" width="10" height="10" rx="2" fill="#ebedf0"/>
  <rect x="60" y="63" width="10" height="10" rx="2" fill="#ebedf0"/>
  <rect x="60" y="76" width="10" height="10" rx="2" fill="#ebedf0"/>
  <rect x="60" y="89" width="10" height="10" rx="2" fill="#ebedf0"/>
  <rect x="60" y="102" width="10" height="10" rx="2" fill="#ebedf0"/>
  <rect x="73" y="24" width="10" height="10" rx="2" fill="#ebedf0"/>
  <rect x="73" y="37" width="10" height="10" rx="2" fill="#ebedf0"/>
  <rect x="73" y="50" width="10" height="10" rx="2" fill="#ebedf0"/>
  <rect x="73" y="63" width="10" height="10" rx="2" fill="#ebedf0"/>
  <rect x="73" y="76" width="10" height="10" rx="2" fill="#ebedf0"/>
  <rect x="73" y="89" width="10" height="10" rx="2" fill="#ebedf0"/>
  <rect x="73" y="102" width="10" height="10" rx="2" fill="#ebedf0"/>
  <rect x="86" y="24" width="10" height="10" rx="2" fill="#ebedf0"/>
  <rect x="86" y="37" width="10" height="10" rx="2" fill="#ebedf0"/>
  <rect x="86" y="50" width="10" height="10" rx="2" fill="#ebedf0"/>
  <rect x="86" y="63" width="10" height="10" rx="2" fill="#ebedf0"/>
  <rect x="86" y="76" width="10" height="10" rx="2" fill="#ebedf0"/>
  <rect x="86" y="89" width="10" height="10" rx="2" fill="#ebedf0"/>
  <rect x="86" y="102" width="10" height="10" rx="2" fill="#ebedf0"/>
  <rect x="99" y="24" width="10" height="10" rx="2" fill="#ebedf0"/>
  <rect x="99" y="37" width="10" height="10" rx="2" fill="#ebedf0"/>
  <rect x="99" y="50" width="10" height="10" rx="2" fill="#ebedf0"/>
  <rect x="99" y="63" width="10" height="10" rx="2" fill="#ebedf0"/>
  <rect x="99" y="76" width="10" height="10" rx="2" fill="#ebedf0"/>
  <rect x="99" y="89" width="10" height="10" rx="2" fill="#ebedf0"/>
  <rect x="99" y="102" width="10" height="10" rx="2" fill="#ebedf0"/>
  <rect x="112" y="24" width="10" height="10" rx="2" fill="#ebedf0"/>
  <rect x="112" y="37" width="10" height="10" rx="2" fill="#ebedf0"/>
  <rect x="112" y="50" width="10" height="10" rx="2" fill="#ebedf0"/>
  <rect x="112" y="63" width="10" height="10" rx="2" fill="#ebedf0"/>
  <rect x="112" y="76" width="10" height="10" rx="2" fill="#ebedf0"/>
  <rect x="112" y="89" width="10" height="10" rx="2" fill="#ebedf0"/>
  <rect x="112" y="102" width="10" height="10" rx="2" fill="#ebedf0"/>
  <rect x="125" y="24" width="10" height="10" rx="2" fill="#ebedf0"/>
  <rect x="125" y="37" width="10" height="10" rx="2" fill="#ebedf0"/>
  <rect x="125" y="50" width="10" height="10" rx="2" fill="#ebedf0"/>
  <rect x="125" y="63" width="10" height="10" rx="2" fill="#ebedf0"/>
  <rect x="125" y="76" width="10" height="10" rx="2" fill="#ebedf0"/>
  <rect x="125" y="89" width="10" height="10" rx="2" fill="#ebedf0"/>
  <rect x="125" y="102" width="10" height="10" rx="2" fill="#ebedf0"/>
  <rect x="138" y="24" width="10" height="10" rx="2" fill="#ebedf0"/>
  <rect x="138" y="37" width="10" height="10" rx="2" fill="#ebedf0"/>
  <rect x="138" y="50" width="10" height="10" rx="2" fill="#ebedf0"/>
  <rect x="138" y="63" width="10" height="10" rx="2" fill="#ebedf0"/>
  <rect x="138" y="76" width="10" height="10" rx="2" fill="#ebedf0"/>
  <rect x="138" y="89" width="10" height="10" rx="2" fill="#ebedf0"/>
  <rect x="138" y="102" width="10" height="10" rx="2" fill="#ebedf0"/>
  <rect x="151" y="24" width="10" height="10" rx="2" fill="#ebedf0"/>
  <rect x="151" y="37" width="10" height="10" rx="2" fill="#ebedf0"/>
  <rect x="151" y="50" width="10" height="10" rx="2" fill="#ebedf0"/>
  <rect x="151" y="63" width="10" height="10" rx="2" fill="#ebedf0"/>
  <rect x="151" y="76" width="10" height="10" rx="2" fill="#ebedf0"/>
  <rect x="151" y="89" width="10" height="10" rx="2" fill="#ebedf0"/>
  <rect x="151" y="102" width="10" height="10" rx="2" fill="#ebedf0"/>
  <rect x="164" y="24" width="10" height="10" rx="2" fill="#ebedf0"/>
  <rect x="164" y="37" width="10" height="10" rx="2" fill="#ebedf0"/>
  <rect x="164" y="50" width="10" height="10" rx="2" fill="#ebedf0"/>
  <rect x="164" y="63" width="10" height="10" rx="2" fill="#ebedf0"/>
  <rect x="164" y="76" width="10" height="10" rx="2" fill="#ebedf0"/>
  <rect x="164" y="89" width="10" height="10" rx="2" fill="#ebedf0"/>
  <rect x="164" y="102" width="10" height="10" rx="2" fill="#ebedf0"/>
  <rect x="177" y="24" width="10" height="10" rx="2" fill="#ebedf0"/>
  <rect x="177" y="37" width="10" height="10" rx="2" fill="#ebedf0"/>
  <rect x="177" y="50" width="10" height="10" rx="2" fill="#ebedf0"/>
  <rect x="177" y="63" width="10" height="10" rx="2" fill="#ebedf0"/>
  <rect x="177" y="76" width="10" height="10" rx="2" fill="#ebedf0"/>
  <rect x="177" y="89" width="10" height="10" rx="2" fill="#ebedf0"/>
  <rect x="177" y="102" width="10" height="10" rx="2" fill="#ebedf0"/>
  <rect x="190" y="24" width="10" height="10" rx="2" fill="#ebedf0"/>
  <rect x="190" y="37" width="10" height="10" rx="2" fill="#ebedf0"/>
  <rect x="190" y="50" width="10" height="10" rx="2" fill="#ebedf0"/>
  <rect x="190" y="63" width="10" height="10" rx="2" fill="#ebedf0"/>
  <rect x="190" y="76" width="10" height="10" rx="2" fill="#ebedf0"/>
  <rect x="190" y="89" width="10" height="10" rx="2" fill="#ebedf0"/>
  <rect x="190" y="102" width="10" height="10" rx="2" fill="#ebedf0"/>
  <rect x="203" y="24" width="10" height="10" rx="2" fill="#ebedf0"/>
  <rect x="203" y="37" width="10" height="10" rx="2" fill="#ebedf0"/>
  <rect x="203" y="50" width="10" height="10" rx="2" fill="#ebedf0"/>
  <rect x="203" y="63" width="10" height="10" rx="2" fill="#ebedf0"/>
  <rect x="203" y="76" width="10" height="10" rx="2" fill="#ebedf0"/>
  <rect x="203" y="89" width="10" height="10" rx="2" fill="#ebedf0"/>
  <rect x="203" y="102" width="10" height="10" rx="2" fill="#ebedf0"/>
  <rect x="216" y="24" width="10" height="10" rx="2" fill="#ebedf0"/>
  <rect x="216" y="37" width="10" height="10" rx="2" fill="#ebedf0"/>
  <rect x="216" y="50" width="10" height="10" rx="2" fill="#ebedf0"/>
  <rect x="216" y="63" width="10" height="10" rx="2" fill="#ebedf0"/>
  <rect x="216" y="76" width="10" height="10" rx="2" fill="#ebedf0"/>
  <rect x="216" y="89" width="10" height="10" rx="2" fill="#ebedf0"/>
  <rect x="216" y="102" width="10" height="10" rx="2" fill="#ebedf0"/>
  <rect x="229" y="24" width="10" height="10" rx="2" fill="#ebedf0"/>
  <rect x="229" y="37" width="10" height="10" rx="2" fill="#ebedf0"/>
  <rect x="229" y="50" width="10" height="10" rx="2" fill="#ebedf0"/>
  <rect x="229" y="63" width="10" height="10" rx="2" fill="#ebedf0"/>
  <rect x="229" y="76" width="10" height="10" rx="2" fill="#ebedf0"/>
  <rect x="229" y="89" width="10" height="10" rx="2" fill="#ebedf0"/>
  <rect x="229" y="102" width="10" height="10" rx="2" fill="#ebedf0"/>
  <rect x="242" y="24" width="10" height="10" rx="2" fill="#ebedf0"/>
  <rect x="242" y="37" width="10" height="10" rx="2" fill="#ebedf0"/>
  <rect x="242" y="50" width="10" height="10" rx="2" fill="#ebedf0"/>
  <rect x="242" y="63" width="10" height="10" rx="2" fill="#ebedf0"/>
  <rect x="242" y="76" width="10" height="10" rx="2" fill="#ebedf0"/>
  <rect x="242" y="89" width="10" height="10" rx="2" fill="#ebedf0"/>
  <rect x="242" y="102" width="10" height="10" rx="2" fill="#ebedf0"/>
  <rect x="255" y="24" width="10" height="10" rx="2" fill="#ebedf0"/>
  <rect x="255" y="37" width="10" height="10" rx="2" fill="#ebedf0"/>
  <rect x="255" y="50" width="10" height="10" rx="2" fill="#ebedf0"/>
  <rect x="255" y="63" width="10" height="10" rx="2" fill="#ebedf0"/>
  <rect x="255" y="76" width="10" height="10" rx="2" fill="#ebedf0"/>
  <rect x="255" y="89" width="10" height="10" rx="2" fill="#ebedf0"/>
  <rect x="255" y="102" width="10" height="10" rx="2" fill="#ebedf0"/>
  <rect x="268" y="24" width="10" height="10" rx="2" fill="#ebedf0"/>
  <rect x="268" y="37" width="10" height="10" rx="2" fill="#ebedf0"/>
  <rect x="268" y="50" width="10" height="10" rx="2" fill="#ebedf0"/>
  <rect x="268" y="63" width="10" height="10" rx="2" fill="#ebedf0"/>
  <rect x="268" y="76" width="10" height="10" rx="2" fill="#ebedf0"/>
  <rect x="268" y="89" width="10" height="10" rx="2" fill="#ebedf0"/>
  <rect x="268" y="102" width="10" height="10" rx="2" fill="#ebedf0"/>
  <rect x="281" y="24" width="10" height="10" rx="2" fill="#ebedf0"/>
  <rect x="281" y="37" width="10" height="10" rx="2" fill="#ebedf0"/>
  <rect x="281" y="50" width="10" height="10" rx="2" fill="#ebedf0"/>
  <rect x="281" y="63" width="10" height="10" rx="2" fill="#ebedf0"/>
  <rect x="281" y="76" width="10" height="10" rx="2" fill="#ebedf0"/>
  <rect x="281" y="89" width="10" height="10" rx="2" fill="#ebedf0"/>
  <rect x="281" y="102" width="10" height="10" rx="2" fill="#ebedf0"/>
  <rect x="294" y="24" width="10" height="10" rx="2" fill="#ebedf0"/>
  <rect x="294" y="37" width="10" height="10" rx="2" fill="#ebedf0"/>
  <rect x="294" y="50" width="10" height="10" rx="2" fill="#ebedf0"/>
  <rect x="294" y="63" width="10" height="10" rx="2" fill="#ebedf0"/>
  <rect x="294" y="76" width="10" height="10" rx="2" fill="#ebedf0"/>
  <rect x="294" y="89" width="10" height="10" rx="2" fill="#ebedf0"/>
  <rect x="294" y="102" width="10" height="10" rx="2" fill="#ebedf0"/>
  <rect x="307" y="24" width="10" height="10" rx="2" fill="#ebedf0"/>
  <rect x="307" y="37" width="10" height="10" rx="2" fill="#ebedf0"/>
  <rect x="307" y="50" width="10" height="10" rx="2" fill="#ebedf0"/>
  <rect x="307" y="63" width="10" height="10" rx="2" fill="#ebedf0"/>
  <rect x="307" y="76" width="10" height="10" rx="2" fill="#ebedf0"/>
  <rect x="307" y="89" width="10" height="10" rx="2" fill="#ebedf0"/>
  <rect x="307" y="102" width="10" height="10" rx="2" fill="#ebedf0"/>
  <rect x="320" y="24" width="10" height="10" rx="2" fill="#ebedf0"/>
  <rect x="320" y="37" width="10" height="10" rx="2" fill="#ebedf0"/>
  <rect x="320" y="50" width="10" height="10" rx="2" fill="#ebedf0"/>
  <rect x="320" y="63" width="10" height="10" rx="2" fill="#ebedf0"/>
  <rect x="320" y="76" width="10" height="10" rx="2" fill="#ebedf0"/>
  <rect x="320" y="89" width="10" height="10" rx="2" fill="#ebedf0"/>
  <rect x="320" y="102" width="10" height="10" rx="2" fill="#ebedf0"/>
  <rect x="333" y="24" width="10" height="10" rx="2" fill="#ebedf0"/>
  <rect x="333" y="37" width="10" height="10" rx="2" fill="#ebedf0"/>
  <rect x="333" y="50" width="10" height="10" rx="2" fill="#ebedf0"/>
  <rect x="333" y="63" width="10" height="10" rx="2" fill="#ebedf0"/>
  <rect x="333" y="76" width="10" height="10" rx="2" fill="#ebedf0"/>
  <rect x="333" y="89" width="10" height="10" rx="2" fill="#ebedf0"/>
  <rect x="333" y="102" width="10" height="10" rx="2" fill="#ebedf0"/>
  <rect x="346" y="24" width="10" height="10" rx="2" fill="#ebedf0"/>
  <rect x="346" y="37" width="10" height="10" rx="2" fill="#ebedf0"/>
  <rect x="346" y="50" width="10" height="10" rx="2" fill="#ebedf0"/>
  <rect x="346" y="63" width="10" height="10" rx="2" fill="#ebedf0"/>
  <rect x="346" y="76" width="10" height="10" rx="2" fill="#ebedf0"/>
  <rect x="346" y="89" width="10" height="10" rx="2" fill="#ebedf0"/>
  <rect x="346" y="102" width="10" height="10" rx="2" fill="#ebedf0"/>
  <rect x="359" y="24" width="10" height="10" rx="2" fill="#ebedf0"/>
  <rect x="359" y="37" width="10" height="10" rx="2" fill="#ebedf0"/>
  <rect x="359" y="50" width="10" height="10" rx="2" fill="#ebedf0"/>
  <rect x="359" y="63" width="10" height="10" rx="2" fill="#ebedf0"/>
  <rect x="359" y="76" width="10" height="10" rx="2" fill="#ebedf0"/>
  <rect x="359" y="89" width="10" height="10" rx="2" fill="#ebedf0"/>
  <rect x="359" y="102" width="10" height="10" rx="2" fill="#ebedf0"/>
  <rect x="372" y="24" width="10" height="10" rx="2" fill="#ebedf0"/>
  <rect x="372" y="37" width="10" height="10" rx="2" fill="#ebedf0"/>
  <rect x="372" y="50" width="10" height="10" rx="2" fill="#ebedf0"/>
  <rect x="372" y="63" width="10" height="10" rx="2" fill="#ebedf0"/>
  <rect x="372" y="76" width="10" height="10" rx="2" fill="#ebedf0"/>
  <rect x="372" y="89" width="10" height="10" rx="2" fill="#ebedf0"/>
  <rect x="372" y="102" width="10" height="10" rx="2" fill="#ebedf0"/>
  <rect x="385" y="24" width="10" height="10" rx="2" fill="#ebedf0"/>
  <rect x="385" y="37" width="10" height="10" rx="2" fill="#ebedf0"/>
  <rect x="385" y="50" width="10" height="10" rx="2" fill="#ebedf0"/>
  <rect x="385" y="63" width="10" height="10" rx="2" fill="#ebedf0"/>
  <rect x="385" y="76" width="10" height="10" rx="2" fill="#ebedf0"/>
  <rect x="385" y="89" width="10" height="10" rx="2" fill="#ebedf0"/>
  <rect x="385" y="102" width="10" height="10" rx="2" fill="#ebedf0"/>
  <rect x="398" y="24" width="10" height="10" rx="2" fill="#ebedf0"/>
  <rect x="398" y="37" width="10" height="10" rx="2" fill="#ebedf0"/>
  <rect x="398" y="50" width="10" height="10" rx="2" fill="#ebedf0"/>
  <rect x="398" y="63" width="10" height="10" rx="2" fill="#ebedf0"/>
  <rect x="398" y="76" width="10" height="10" rx="2" fill="#ebedf0"/>
  <rect x="398" y="89" width="10" height="10" rx="2" fill="#ebedf0"/>
  <rect x="398" y="102" width="10" height="10" rx="2" fill="#ebedf0"/>
  <rect x="411" y="24" width="10" height="10" rx="2" fill="#ebedf0"/>
  <rect x="411" y="37" width="10" height="10" rx="2" fill="#ebedf0"/>
  <rect x="411" y="50" width="10" height="10" rx="2" fill="#ebedf0"/>
  <rect x="411" y="63" width="10" height="10" rx="2" fill="#ebedf0"/>
  <rect x="411" y="76" width="10" height="10" rx="2" fill="#ebedf0"/>
  <rect x="411" y="89" width="10" height="10" rx="2" fill="#ebedf0"/>
  <rect x="411" y="102" width="10" height="10" rx="2" fill="#ebedf0"/>
  <rect x="424" y="24" width="10" height="10" rx="2" fill="#ebedf0"/>
  <rect x="424" y="37" width="10" height="10" rx="2" fill="#ebedf0"/>
  <rect x="424" y="50" width="10" height="10" rx="2" fill="#ebedf0"/>
  <rect x="424" y="63" width="10" height="10" rx="2" fill="#ebedf0"/>
  <rect x="424" y="76" width="10" height="10" rx="2" fill="#ebedf0"/>
  <rect x="424" y="89" width="10" height="10" rx="2" fill="#ebedf0"/>
  <rect x="424" y="102" width="10" height="10" rx="2" fill="#ebedf0"/>
  <rect x="437" y="24" width="10" height="10" rx="2" fill="#ebedf0"/>
  <rect x="437" y="37" width="10" height="10" rx="2" fill="#ebedf0"/>
  <rect x="437" y="50" width="10" height="10" rx="2" fill="#ebedf0"/>
  <rect x="437" y="63" width="10" height="10" rx="2" fill="#ebedf0"/>
  <rect x="437" y="76" width="10" height="10" rx="2" fill="#ebedf0"/>
  <rect x="437" y="89" width="10" height="10" rx="2" fill="#ebedf0"/>
  <rect x="437" y="102" width="10" height="10" rx="2" fill="#ebedf0"/>
  <rect x="450" y="24" width="10" height="10" rx="2" fill="#ebedf0"/>
  <rect x="450" y="37" width="10" height="10" rx="2" fill="#ebedf0"/>
  <rect x="450" y="50" width="10" height="10" rx="2" fill="#ebedf0"/>
  <rect x="450" y="63" width="10" height="10" rx="2" fill="#ebedf0"/>
  <rect x="450" y="76" width="10" height="10" rx="2" fill="#ebedf0"/>
  <rect x="450" y="89" width="10" height="10" rx="2" fill="#ebedf0"/>
  <rect x="450" y="102" width="10" height="10" rx="2" fill="#ebedf0"/>
  <rect x="463" y="24" width="10" height="10" rx="2" fill="#ebedf0"/>
  <rect x="463" y="37" width="10" height="10" rx="2" fill="#ebedf0"/>
  <rect x="463" y="50" width="10" height="10" rx="2" fill="#ebedf0"/>
  <rect x="463" y="63" width="10" height="10" rx="2" fill="#ebedf0"/>
  <rect x="463" y="76" width="10" height="10" rx="2" fill="#ebedf0"/>
  <rect x="463" y="89" width="10" height="10" rx="2" fill="#ebedf0"/>
  <rect x="463" y="102" width="10" height="10" rx="2" fill="#ebedf0"/>
  <rect x="476" y="24" width="10" height="10" rx="2" fill="#ebedf0"/>
  <rect x="476" y="37" width="10" height="10" rx="2" fill="#ebedf0"/>
  <rect x="476" y="50" width="10" height="10" rx="2" fill="#ebedf0"/>
  <rect x="476" y="63" width="10" height="10" rx="2" fill="#ebedf0"/>
  <rect x="476" y="76" width="10" height="10" rx="2" fill="#ebedf0"/>
  <rect x="476" y="89" width="10" height="10" rx="2" fill="#ebedf0"/>
  <rect x="476" y="102" width="10" height="10" rx="2" fill="#ebedf0"/>
  <rect x="489" y="24" width="10" height="10" rx="2" fill="#ebedf0"/>
  <rect x="489" y="37" width="10" height="10" rx="2" fill="#ebedf0"/>
  <rect x="489" y="50" width="10" height="10" rx="2" fill="#ebedf0"/>
  <rect x="489" y="63" width="10" height="10" rx="2" fill="#ebedf0"/>
  <rect x="489" y="76" width="10" height="10" rx="2" fill="#ebedf0"/>
  <rect x="489" y="89" width="10" height="10" rx="2" fill="#ebedf0"/>
  <rect x="489" y="102" width="10" height="10" rx="2" fill="#ebedf0"/>
  <rect x="502" y="24" width="10" height="10" rx="2" fill="#ebedf0"/>
  <rect x="502" y="37" width="10" height="10" rx="2" fill="#ebedf0"/>
  <rect x="502" y="50" width="10" height="10" rx="2" fill="#ebedf0"/>
  <rect x="502" y="63" width="10" height="10" rx="2" fill="#ebedf0"/>
  <rect x="502" y="76" width="10" height="10" rx="2" fill="#ebedf0"/>
  <rect x="502" y="89" width="10" height="10" rx="2" fill="#ebedf0"/>
  <rect x="502" y="102" width="10" height="10" rx="2" fill="#ebedf0"/>
  <rect x="515" y="24" width="10" height="10" rx="2" fill="#ebedf0"/>
  <rect x="515" y="37" width="10" height="10" rx="2" fill="#ebedf0"/>
  <rect x="515" y="50" width="10" height="10" rx="2" fill="#ebedf0"/>
  <rect x="515" y="63" width="10" height="10" rx="2" fill="#ebedf0"/>
  <rect x="515" y="76" width="10" height="10" rx="2" fill="#ebedf0"/>
  <rect x="515" y="89" width="10" height="10" rx="2" fill="#ebedf0"/>
  <rect x="515" y="102" width="10" height="10" rx="2" fill="#ebedf0"/>
  <rect x="528" y="24" width="10" height="10" rx="2" fill="#ebedf0"/>
  <rect x="528" y="37" width="10" height="10" rx="2" fill="#ebedf0"/>
  <rect x="528" y="50" width="10" height="10" rx="2" fill="#ebedf0"/>
  <rect x="528" y="63" width="10" height="10" rx="2" fill="#ebedf0"/>
  <rect x="528" y="76" width="10" height="10" rx="2" fill="#ebedf0"/>
  <rect x="528" y="89" width="10" height="10" rx="2" fill="#ebedf0"/>
  <rect x="528" y="102" width="10" height="10" rx="2" fill="#ebedf0"/>
  <rect x="541" y="24" width="10" height="10" rx="2" fill="#ebedf0"/>
  <rect x="541" y="37" width="10" height="10" rx="2" fill="#ebedf0"/>
  <rect x="541" y="50" width="10" height="10" rx="2" fill="#ebedf0"/>
  <rect x="541" y="63" width="10" height="10" rx="2" fill="#ebedf0"/>
  <rect x="541" y="76" width="10" height="10" rx="2" fill="#ebedf0"/>
  <rect x="541" y="89" width="10" height="10" rx="2" fill="#ebedf0"/>
  <rect x="541" y="102" width="10" height="10" rx="2" fill="#ebedf0"/>
  <rect x="554" y="24" width="10" height="10" rx="2" fill="#ebedf0"/>
  <rect x="554" y="37" width="10" height="10" rx="2" fill="#ebedf0"/>
  <rect x="554" y="50" width="10" height="10" rx="2" fill="#ebedf0"/>
  <rect x="554" y="63" width="10" height="10" rx="2" fill="#ebedf0"/>
  <rect x="554" y="76" width="10" height="10" rx="2" fill="#ebedf0"/>
  <rect x="554" y="89" width="10" height="10" rx="2" fill="#ebedf0"/>
  <rect x="554" y="102" width="10" height="10" rx="2" fill="#ebedf0"/>
  <rect x="567" y="24" width="10" height="10" rx="2" fill="#ebedf0"/>
  <rect x="567" y="37" width="10" height="10" rx="2" fill="#ebedf0"/>
  <rect x="567" y="50" width="10" height="10" rx="2" fill="#ebedf0"/>
  <rect x="567" y="63" width="10" height="10" rx="2" fill="#ebedf0"/>
  <rect x="567" y="76" width="10" height="10" rx="2" fill="#ebedf0"/>
  <rect x="567" y="89" width="10" height="10" rx="2" fill="#ebedf0"/>
  <rect x="567" y="102" width="10" height="10" rx="2" fill="#ebedf0"/>
  <rect x="580" y="24" width="10" height="10" rx="2" fill="#ebedf0"/>
  <rect x="580" y="37" width="10" height="10" rx="2" fill="#ebedf0"/>
  <rect x="580" y="50" width="10" height="10" rx="2" fill="#ebedf0"/>
  <rect x="580" y="63" width="10" height="10" rx="2" fill="#ebedf0"/>
  <rect x="580" y="76" width="10" height="10" rx="2" fill="#ebedf0"/>
  <rect x="580" y="89" width="10" height="10" rx="2" fill="#ebedf0"/>
  <rect x="580" y="102" width="10" height="10" rx="2" fill="#ebedf0"/>
  <rect x="593" y="24" width="10" height="10" rx="2" fill="#9be9a8"/>
  <rect x="593" y="37" width="10" height="10" rx="2" fill="#ebedf0"/>
  <rect x="593" y="50" width="10" height="10" rx="2" fill="#ebedf0"/>
  <rect x="593" y="63" width="10" height="10" rx="2" fill="#ebedf0"/>
  <rect x="593" y="76" width="10" height="10" rx="2" fill="#ebedf0"/>
  <rect x="593" y="89" width="10" height="10" rx="2" fill="#ebedf0"/>
  <rect x="593" y="102" width="10" height="10" rx="2" fill="#ebedf0"/>
  <rect x="606" y="24" width="10" height="10" rx="2" fill="#ebedf0"/>
  <rect x="606" y="37" width="10" height="10" rx="2" fill="#ebedf0"/>
  <rect x="606" y="50" width="10" height="10" rx="2" fill="#ebedf0"/>
  <rect x="606" y="63" width="10" height="10" rx="2" fill="#ebedf0"/>
  <rect x="606" y="76" width="10" height="10" rx="2" fill="#ebedf0"/>
  <rect x="606" y="89" width="10" height="10" rx="2" fill="#ebedf0"/>
  <rect x="606" y="102" width="10" height="10" rx="2" fill="#ebedf0"/>
  <rect x="619" y="24" width="10" height="10" rx="2" fill="#ebedf0"/>
  <rect x="619" y="37" width="10" height="10" rx="2" fill="#ebedf0"/>
  <rect x="619" y="50" width="10" height="10" rx="2" fill="#ebedf0"/>
  <rect x="619" y="63" width="10" height="10" rx="2" fill="#ebedf0"/>
  <rect x="619" y="76" width="10" height="10" rx="2" fill="#ebedf0"/>
  <rect x="619" y="89" width="10" height="10" rx="2" fill="#ebedf0"/>
  <rect x="619" y="102" width="10" height="10" rx="2" fill="#ebedf0"/>
  <rect x="632" y="24" width="10" height="10" rx="2" fill="#ebedf0"/>
  <rect x="632" y="37" width="10" height="10" rx="2" fill="#ebedf0"/>
  <rect x="632" y="50" width="10" height="10" rx="2" fill="#ebedf0"/>
  <rect x="632" y="63" width="10" height="10" rx="2" fill="#ebedf0"/>
  <rect x="632" y="76" width="10" height="10" rx="2" fill="#ebedf0"/>
  <rect x="632" y="89" width="10" height="10" rx="2" fill="#ebedf0"/>
  <rect x="632" y="102" width="10" height="10" rx="2" fill="#ebedf0"/>
  <rect x="645" y="24" width="10" height="10" rx="2" fill="#ebedf0"/>
  <rect x="645" y="37" width="10" height="10" rx="2" fill="#ebedf0"/>
  <rect x="645" y="50" width="10" height="10" rx="2" fill="#ebedf0"/>
  <rect x="645" y="63" width="10" height="10" rx="2" fill="#ebedf0"/>
  <rect x="645" y="76" width="10" height="10" rx="2" fill="#ebedf0"/>
  <rect x="645" y="89" width="10" height="10" rx="2" fill="#ebedf0"/>
  <rect x="645" y="102" width="10" height="10" rx="2" fill="#ebedf0"/>
  <rect x="658" y="24" width="10" height="10" rx="2" fill="#ebedf0"/>
  <rect x="658" y="37" width="10" height="10" rx="2" fill="#ebedf0"/>
  <rect x="658" y="50" width="10" height="10" rx="2" fill="#ebedf0"/>
  <rect x="658" y="63" width="10" height="10" rx="2" fill="#ebedf0"/>
  <rect x="658" y="76" width="10" height="10" rx="2" fill="#ebedf0"/>
  <rect x="658" y="89" width="10" height="10" rx="2" fill="#ebedf0"/>
  <rect x="658" y="102" width="10" height="10" rx="2" fill="#ebedf0"/>
  <rect x="671" y="24" width="10" height="10" rx="2" fill="#ebedf0"/>
  <rect x="671" y="37" width="10" height="10" rx="2" fill="#ebedf0"/>
  <rect x="671" y="50" width="10" height="10" rx="2" fill="#ebedf0"/>
  <rect x="671" y="63" width="10" height="10" rx="2" fill="#ebedf0"/>
  <rect x="671" y="76" width="10" height="10" rx="2" fill="#ebedf0"/>
  <rect x="671" y="89" width="10" height="10" rx="2" fill="#ebedf0"/>
  <rect x="671" y="102" width="10" height="10" rx="2" fill="#ebedf0"/>
  <rect x="684" y="24" width="10" height="10" rx="2" fill="#ebedf0"/>
  <rect x="684" y="37" width="10" height="10" rx="2" fill="#ebedf0"/>
  <rect x="684" y="50" width="10" height="10" rx="2" fill="#ebedf0"/>
  <rect x="684" y="63" width="10" height="10" rx="2" fill="#ebedf0"/>
  <rect x="684" y="76" width="10" height="10" rx="2" fill="#ebedf0"/>
  <rect x="684" y="89" width="10" height="10" rx="2" fill="#ebedf0"/>
  <rect x="684" y="102" width="10" height="10" rx="2" fill="#ebedf0"/>
  <rect x="697" y="24" width="10" height="10" rx="2" fill="#ebedf0"/>
  <rect x="697" y="37" width="10" height="10" rx="2" fill="#ebedf0"/>
  <rect x="697" y="50" width="10" height="10" rx="2" fill="#ebedf0"/>
  <rect x="697" y="63" width="10" height="10" rx="2" fill="#ebedf0"/>
  <rect x="697" y="76" width="10" height="10" rx="2" fill="#ebedf0"/>
  <rect x="697" y="89" width="10" height="10" rx="2" fill="#ebedf0"/>
  <rect x="697" y="102" width="10" height="10" rx="2" fill="#ebedf0"/>
  <rect x="710" y="24" width="10" height="10" rx="2" fill="#ebedf0"/>
  <rect x="710" y="37" width="10" height="10" rx="2" fill="#ebedf0"/>
  <rect x="710" y="50" width="10" height="10" rx="2" fill="#ebedf0"/>
  <rect x="710" y="63" width="10" height="10" rx="2" fill="#ebedf0"/>
</g>
<g stroke="rgba(4,4,16,0.86)" stroke-linecap="round" stroke-width="1.20" filter="url(#sg)">
  <line x1="598.00" y1="29.00" x2="598.00" y2="49.00" stroke-dasharray="20.0"><animate attributeName="stroke-dashoffset" values="20.0;20.0;0;0" keyTimes="0;0.0423;0.0899;1" dur="18.90s" repeatCount="indefinite" calcMode="linear"/></line>
</g>
<path d="M 598.00,36.00 Z" fill="none" stroke="rgba(4,4,16,0.86)" stroke-width="0.80" stroke-linejoin="round" filter="url(#sg)" stroke-dasharray="0.0"><animate attributeName="stroke-dashoffset" values="0.0;0.0;0;0" keyTimes="0;0.1217;0.2804;1" dur="18.90s" repeatCount="indefinite" calcMode="linear"/></path>
<path d="M 598.00,43.00 Z" fill="none" stroke="rgba(4,4,16,0.86)" stroke-width="0.98" stroke-linejoin="round" filter="url(#sg)" stroke-dasharray="0.0"><animate attributeName="stroke-dashoffset" values="0.0;0.0;0;0" keyTimes="0;0.3175;0.4762;1" dur="18.90s" repeatCount="indefinite" calcMode="linear"/></path>
<path d="M 598.00,49.00 Z" fill="none" stroke="rgba(4,4,16,0.86)" stroke-width="1.16" stroke-linejoin="round" filter="url(#sg)" stroke-dasharray="0.0"><animate attributeName="stroke-dashoffset" values="0.0;0.0;0;0" keyTimes="0;0.5132;0.6720;1" dur="18.90s" repeatCount="indefinite" calcMode="linear"/></path>
<circle cx="598.00" cy="29.00" r="2.6" fill="rgba(0,0,8,0.93)" opacity="0"><animate attributeName="opacity" values="0;0;1;1" keyTimes="0;0.0423;0.0608;1" dur="18.90s" repeatCount="indefinite" calcMode="linear"/></circle>
<circle cx="598.00" cy="49.00" r="2.0" fill="rgba(0,0,8,0.93)" opacity="0"><animate attributeName="opacity" values="0;0;1;1" keyTimes="0;0.0899;0.1048;1" dur="18.90s" repeatCount="indefinite" calcMode="linear"/></circle>
<g filter="url(#sh)" style="animation:sm 18.90s linear infinite">
  <ellipse cx="0" cy="3.0" rx="2.8" ry="3.5" fill="#8a9acf" opacity="0.90"/>
  <circle  cx="0" cy="0"   r="3.5"             fill="#bdd0ff"/>
  <g stroke="#99aadd" stroke-width="1.2" stroke-linecap="round">
    <line x1="0" y1="0" x2="-4.0" y2="-5.0"/>
    <line x1="0" y1="0" x2="-6.0" y2="-1.5"/>
    <line x1="0" y1="0" x2="-6.0" y2="2.0"/>
    <line x1="0" y1="0" x2="-3.8" y2="5.0"/>
    <line x1="0" y1="0" x2="4.0" y2="-5.0"/>
    <line x1="0" y1="0" x2="6.0" y2="-1.5"/>
    <line x1="0" y1="0" x2="6.0" y2="2.0"/>
    <line x1="0" y1="0" x2="3.8" y2="5.0"/>
  </g>
  <circle cx="-1.3" cy="-1.4" r="0.8" fill="white" opacity="0.96"/>
  <circle cx=" 1.3" cy="-1.4" r="0.8" fill="white" opacity="0.96"/>
</g>
</svg>