<svg xmlns="http://www.w3.org/2000/svg" viewBox="0 0 731 123" width="731" height="123" aria-label="Contribution spider web">
<defs>
  <filter id="sg" x="-30%" y="-30%" width="160%" height="160%"><feGaussianBlur in="SourceGraphic" stdDeviation="1.3" result="b"/><feMerge><feMergeNode in="b"/><feMergeNode in="SourceGraphic"/></feMerge></filter>
  <filter id="sh" x="-80%" y="-80%" width="260%" height="260%"><feGaussianBlur in="SourceGraphic" stdDeviation="3.0" result="b"/><feMerge><feMergeNode in="b"/><feMergeNode in="SourceGraphic"/></feMerge></filter>
</defs>
<style>@keyframes sm{0.00%{transform:translate(178.0px,25.0px)}2.87%{transform:translate(208.0px,55.0px)}6.09%{transform:translate(156.0px,42.0px)}8.24%{transform:translate(208.0px,55.0px)}11.47%{transform:translate(247.0px,42.0px)}13.62%{transform:translate(208.0px,55.0px)}16.85%{transform:translate(286.0px,81.0px)}19.00%{transform:translate(208.0px,55.0px)}22.22%{transform:translate(234.0px,94.0px)}24.37%{transform:translate(208.0px,55.0px)}27.60%{transform:translate(208.0px,107.0px)}29.75%{transform:translate(208.0px,55.0px)}32.97%{transform:translate(182.0px,94.0px)}35.13%{transform:translate(208.0px,55.0px)}38.35%{transform:translate(130.0px,81.0px)}40.50%{transform:translate(208.0px,55.0px)}40.50%{transform:translate(189.8px,50.5px)}42.29%{transform:translate(221.7px,50.5px)}44.09%{transform:translate(235.3px,64.1px)}45.88%{transform:translate(217.1px,68.7px)}47.67%{transform:translate(208.0px,73.2px)}49.46%{transform:translate(198.9px,68.7px)}51.25%{transform:translate(180.7px,64.1px)}51.25%{transform:translate(189.8px,50.5px)}53.76%{transform:translate(208.0px,55.0px)}53.76%{transform:translate(171.6px,45.9px)}55.56%{transform:translate(235.3px,45.9px)}57.35%{transform:translate(262.6px,73.2px)}59.14%{transform:translate(226.2px,82.3px)}60.93%{transform:translate(208.0px,91.4px)}62.72%{transform:translate(189.8px,82.3px)}64.52%{transform:translate(153.4px,73.2px)}64.52%{transform:translate(171.6px,45.9px)}67.03%{transform:translate(208.0px,55.0px)}67.03%{transform:translate(156.0px,42.0px)}68.82%{transform:translate(247.0px,42.0px)}70.61%{transform:translate(286.0px,81.0px)}72.40%{transform:translate(234.0px,94.0px)}74.19%{transform:translate(208.0px,107.0px)}75.99%{transform:translate(182.0px,94.0px)}77.78%{transform:translate(130.0px,81.0px)}77.78%{transform:translate(156.0px,42.0px)}80.29%{transform:translate(208.0px,55.0px)}100.00%{transform:translate(208.0px,55.0px)}}</style>
<rect width="731" height="123" rx="8" fill="#0d1117"/>
<g font-family="'Segoe UI',system-ui,sans-serif" font-size="9" fill="#8b949e">
  <text x="34" y="15">Mar</text>
  <text x="47" y="15">Apr</text>
  <text x="99" y="15">May</text>
  <text x="151" y="15">Jun</text>
  <text x="216" y="15">Jul</text>
  <text x="268" y="15">Aug</text>
  <text x="333" y="15">Sep</text>
  <text x="385" y="15">Oct</text>
  <text x="437" y="15">Nov</text>
  <text x="502" y="15">Dec</text>
  <text x="554" y="15">Jan</text>
  <text x="606" y="15">Feb</text>
  <text x="658" y="15">Mar</text>
  <text x="30" y="45.0" text-anchor="end">Mon</text>
  <text x="30" y="71.0" text-anchor="end">Wed</text>
  <text x="30" y="97.0" text-anchor="end">Fri</text>
</g>
<g>
  <rect x="34" y="24" width="10" height="10" rx="2" fill="#0e4429"/>
  <rect x="34" y="37" width="10" height="10" rx="2" fill="#0e4429"/>
  <rect x="34" y="50" width="10" height="10" rx="2" fill="#0e4429"/>
  <rect x="34" y="63" width="10" height="10" rx="2" fill="#39d353"/>
  <rect x="34" y="76" width="10" height="10" rx="2" fill="#006d32"/>
  <rect x="34" y="89" width="10" height="10" rx="2" fill="#0e4429"/>
  <rect x="34" y="102" width="10" height="10" rx="2" fill="#161b22"/>
  <rect x="47" y="24" width="10" height="10" rx="2" fill="#161b22"/>
  <rect x="47" y="37" width="10" height="10" rx="2" fill="#161b22"/>
  <rect x="47" y="50" width="10" height="10" rx="2" fill="#0e4429"/>
  <rect x="47" y="63" width="10" height="10" rx="2" fill="#006d32"/>
  <rect x="47" y="76" width="10" height="10" rx="2" fill="#26a641"/>
  <rect x="47" y="89" width="10" height="10" rx="2" fill="#0e4429"/>
  <rect x="47" y="102" width="10" height="10" rx="2" fill="#161b22"/>
  <rect x="60" y="24" width="10" height="10" rx="2" fill="#39d353"/>
  <rect x="60" y="37" width="10" height="10" rx="2" fill="#006d32"/>
  <rect x="60" y="50" width="10" height="10" rx="2" fill="#26a641"/>
  <rect x="60" y="63" width="10" height="10" rx="2" fill="#0e4429"/>
  <rect x="60" y="76" width="10" height="10" rx="2" fill="#161b22"/>
  <rect x="60" y="89" width="10" height="10" rx="2" fill="#161b22"/>
  <rect x="60" y="102" width="10" height="10" rx="2" fill="#26a641"/>
  <rect x="73" y="24" width="10" height="10" rx="2" fill="#39d353"/>
  <rect x="73" y="37" width="10" height="10" rx="2" fill="#006d32"/>
  <rect x="73" y="50" width="10" height="10" rx="2" fill="#161b22"/>
  <rect x="73" y="63" width="10" height="10" rx="2" fill="#006d32"/>
  <rect x="73" y="76" width="10" height="10" rx="2" fill="#26a641"/>
  <rect x="73" y="89" width="10" height="10" rx="2" fill="#0e4429"/>
  <rect x="73" y="102" width="10" height="10" rx="2" fill="#161b22"/>
  <rect x="86" y="24" width="10" height="10" rx="2" fill="#0e4429"/>
  <rect x="86" y="37" width="10" height="10" rx="2" fill="#26a641"/>
  <rect x="86" y="50" width="10" height="10" rx="2" fill="#0e4429"/>
  <rect x="86" y="63" width="10" height="10" rx="2" fill="#161b22"/>
  <rect x="86" y="76" width="10" height="10" rx="2" fill="#39d353"/>
  <rect x="86" y="89" width="10" height="10" rx="2" fill="#006d32"/>
  <rect x="86" y="102" width="10" height="10" rx="2" fill="#39d353"/>
  <rect x="99" y="24" width="10" height="10" rx="2" fill="#26a641"/>
  <rect x="99" y="37" width="10" height="10" rx="2" fill="#0e4429"/>
  <rect x="99" y="50" width="10" height="10" rx="2" fill="#26a641"/>
  <rect x="99" y="63" width="10" height="10" rx="2" fill="#006d32"/>
  <rect x="99" y="76" width="10" height="10" rx="2" fill="#006d32"/>
  <rect x="99" y="89" width="10" height="10" rx="2" fill="#0e4429"/>
  <rect x="99" y="102" width="10" height="10" rx="2" fill="#161b22"/>
  <rect x="112" y="24" width="10" height="10" rx="2" fill="#006d32"/>
  <rect x="112" y="37" width="10" height="10" rx="2" fill="#0e4429"/>
  <rect x="112" y="50" width="10" height="10" rx="2" fill="#006d32"/>
  <rect x="112" y="63" width="10" height="10" rx="2" fill="#161b22"/>
  <rect x="112" y="76" width="10" height="10" rx="2" fill="#161b22"/>
  <rect x="112" y="89" width="10" height="10" rx="2" fill="#161b22"/>
  <rect x="112" y="102" width="10" height="10" rx="2" fill="#0e4429"/>
  <rect x="125" y="24" width="10" height="10" rx="2" fill="#26a641"/>
  <rect x="125" y="37" width="10" height="10" rx="2" fill="#39d353"/>
  <rect x="125" y="50" width="10" height="10" rx="2" fill="#39d353"/>
  <rect x="125" y="63" width="10" height="10" rx="2" fill="#161b22"/>
  <rect x="125" y="76" width="10" height="10" rx="2" fill="#39d353"/>
  <rect x="125" y="89" width="10" height="10" rx="2" fill="#39d353"/>
  <rect x="125" y="102" width="10" height="10" rx="2" fill="#0e4429"/>
  <rect x="138" y="24" width="10" height="10" rx="2" fill="#161b22"/>
  <rect x="138" y="37" width="10" height="10" rx="2" fill="#161b22"/>
  <rect x="138" y="50" width="10" height="10" rx="2" fill="#161b22"/>
  <rect x="138" y="63" width="10" height="10" rx="2" fill="#006d32"/>
  <rect x="138" y="76" width="10" height="10" rx="2" fill="#26a641"/>
  <rect x="138" y="89" width="10" height="10" rx="2" fill="#161b22"/>
  <rect x="138" y="102" width="10" height="10" rx="2" fill="#161b22"/>
  <rect x="151" y="24" width="10" height="10" rx="2" fill="#39d353"/>
  <rect x="151" y="37" width="10" height="10" rx="2" fill="#39d353"/>
  <rect x="151" y="50" width="10" height="10" rx="2" fill="#26a641"/>
  <rect x="151" y="63" width="10" height="10" rx="2" fill="#26a641"/>
  <rect x="151" y="76" width="10" height="10" rx="2" fill="#0e4429"/>
  <rect x="151" y="89" width="10" height="10" rx="2" fill="#006d32"/>
  <rect x="151" y="102" width="10" height="10" rx="2" fill="#0e4429"/>
  <rect x="164" y="24" width="10" height="10" rx="2" fill="#39d353"/>
  <rect x="164" y="37" width="10" height="10" rx="2" fill="#161b22"/>
  <rect x="164" y="50" width="10" height="10" rx="2" fill="#0e4429"/>
  <rect x="164" y="63" width="10" height="10" rx="2" fill="#161b22"/>
  <rect x="164" y="76" width="10" height="10" rx="2" fill="#26a641"/>
  <rect x="164" y="89" width="10" height="10" rx="2" fill="#26a641"/>
  <rect x="164" y="102" width="10" height="10" rx="2" fill="#161b22"/>
  <rect x="177" y="24" width="10" height="10" rx="2" fill="#26a641"/>
  <rect x="177" y="37" width="10" height="10" rx="2" fill="#0e4429"/>
  <rect x="177" y="50" width="10" height="10" rx="2" fill="#39d353"/>
  <rect x="177" y="63" width="10" height="10" rx="2" fill="#0e4429"/>
  <rect x="177" y="76" width="10" height="10" rx="2" fill="#26a641"/>
  <rect x="177" y="89" width="10" height="10" rx="2" fill="#26a641"/>
  <rect x="177" y="102" width="10" height="10" rx="2" fill="#161b22"/>
  <rect x="190" y="24" width="10" height="10" rx="2" fill="#161b22"/>
  <rect x="190" y="37" width="10" height="10" rx="2" fill="#0e4429"/>
  <rect x="190" y="50" width="10" height="10" rx="2" fill="#39d353"/>
  <rect x="190" y="63" width="10" height="10" rx="2" fill="#39d353"/>
  <rect x="190" y="76" width="10" height="10" rx="2" fill="#0e4429"/>
  <rect x="190" y="89" width="10" height="10" rx="2" fill="#161b22"/>
  <rect x="190" y="102" width="10" height="10" rx="2" fill="#006d32"/>
  <rect x="203" y="24" width="10" height="10" rx="2" fill="#006d32"/>
  <rect x="203" y="37" width="10" height="10" rx="2" fill="#39d353"/>
  <rect x="203" y="50" width="10" height="10" rx="2" fill="#39d353"/>
  <rect x="203" y="63" width="10" height="10" rx="2" fill="#39d353"/>
  <rect x="203" y="76" width="10" height="10" rx="2" fill="#161b22"/>
  <rect x="203" y="89" width="10" height="10" rx="2" fill="#006d32"/>
  <rect x="203" y="102" width="10" height="10" rx="2" fill="#26a641"/>
  <rect x="216" y="24" width="10" height="10" rx="2" fill="#26a641"/>
  <rect x="216" y="37" width="10" height="10" rx="2" fill="#006d32"/>
  <rect x="216" y="50" width="10" height="10" rx="2" fill="#0e4429"/>
  <rect x="216" y="63" width="10" height="10" rx="2" fill="#161b22"/>
  <rect x="216" y="76" width="10" height="10" rx="2" fill="#26a641"/>
  <rect x="216" y="89" width="10" height="10" rx="2" fill="#0e4429"/>
  <rect x="216" y="102" width="10" height="10" rx="2" fill="#161b22"/>
  <rect x="229" y="24" width="10" height="10" rx="2" fill="#39d353"/>
  <rect x="229" y="37" width="10" height="10" rx="2" fill="#0e4429"/>
  <rect x="229" y="50" width="10" height="10" rx="2" fill="#161b22"/>
  <rect x="229" y="63" width="10" height="10" rx="2" fill="#006d32"/>
  <rect x="229" y="76" width="10" height="10" rx="2" fill="#39d353"/>
  <rect x="229" y="89" width="10" height="10" rx="2" fill="#006d32"/>
  <rect x="229" y="102" width="10" height="10" rx="2" fill="#0e4429"/>
  <rect x="242" y="24" width="10" height="10" rx="2" fill="#26a641"/>
  <rect x="242" y="37" width="10" height="10" rx="2" fill="#39d353"/>
  <rect x="242" y="50" width="10" height="10" rx="2" fill="#161b22"/>
  <rect x="242" y="63" width="10" height="10" rx="2" fill="#006d32"/>
  <rect x="242" y="76" width="10" height="10" rx="2" fill="#006d32"/>
  <rect x="242" y="89" width="10" height="10" rx="2" fill="#39d353"/>
  <rect x="242" y="102" width="10" height="10" rx="2" fill="#161b22"/>
  <rect x="255" y="24" width="10" height="10" rx="2" fill="#161b22"/>
  <rect x="255" y="37" width="10" height="10" rx="2" fill="#26a641"/>
  <rect x="255" y="50" width="10" height="10" rx="2" fill="#006d32"/>
  <rect x="255" y="63" width="10" height="10" rx="2" fill="#006d32"/>
  <rect x="255" y="76" width="10" height="10" rx="2" fill="#0e4429"/>
  <rect x="255" y="89" width="10" height="10" rx="2" fill="#39d353"/>
  <rect x="255" y="102" width="10" height="10" rx="2" fill="#161b22"/>
  <rect x="268" y="24" width="10" height="10" rx="2" fill="#26a641"/>
  <rect x="268" y="37" width="10" height="10" rx="2" fill="#161b22"/>
  <rect x="268" y="50" width="10" height="10" rx="2" fill="#0e4429"/>
  <rect x="268" y="63" width="10" height="10" rx="2" fill="#0e4429"/>
  <rect x="268" y="76" width="10" height="10" rx="2" fill="#161b22"/>
  <rect x="268" y="89" width="10" height="10" rx="2" fill="#161b22"/>
  <rect x="268" y="102" width="10" height="10" rx="2" fill="#26a641"/>
  <rect x="281" y="24" width="10" height="10" rx="2" fill="#26a641"/>
  <rect x="281" y="37" width="10" height="10" rx="2" fill="#0e4429"/>
  <rect x="281" y="50" width="10" height="10" rx="2" fill="#161b22"/>
  <rect x="281" y="63" width="10" height="10" rx="2" fill="#161b22"/>
  <rect x="281" y="76" width="10" height="10" rx="2" fill="#39d353"/>
  <rect x="281" y="89" width="10" height="10" rx="2" fill="#0e4429"/>
  <rect x="281" y="102" width="10" height="10" rx="2" fill="#0e4429"/>
  <rect x="294" y="24" width="10" height="10" rx="2" fill="#006d32"/>
  <rect x="294" y="37" width="10" height="10" rx="2" fill="#0e4429"/>
  <rect x="294" y="50" width="10" height="10" rx="2" fill="#161b22"/>
  <rect x="294" y="63" width="10" height="10" rx="2" fill="#0e4429"/>
  <rect x="294" y="76" width="10" height="10" rx="2" fill="#0e4429"/>
  <rect x="294" y="89" width="10" height="10" rx="2" fill="#0e4429"/>
  <rect x="294" y="102" width="10" height="10" rx="2" fill="#0e4429"/>
  <rect x="307" y="24" width="10" height="10" rx="2" fill="#0e4429"/>
  <rect x="307" y="37" width="10" height="10" rx="2" fill="#0e4429"/>
  <rect x="307" y="50" width="10" height="10" rx="2" fill="#0e4429"/>
  <rect x="307" y="63" width="10" height="10" rx="2" fill="#161b22"/>
  <rect x="307" y="76" width="10" height="10" rx="2" fill="#161b22"/>
  <rect x="307" y="89" width="10" height="10" rx="2" fill="#39d353"/>
  <rect x="307" y="102" width="10" height="10" rx="2" fill="#0e4429"/>
  <rect x="320" y="24" width="10" height="10" rx="2" fill="#26a641"/>
  <rect x="320" y="37" width="10" height="10" rx="2" fill="#39d353"/>
  <rect x="320" y="50" width="10" height="10" rx="2" fill="#26a641"/>
  <rect x="320" y="63" width="10" height="10" rx="2" fill="#39d353"/>
  <rect x="320" y="76" width="10" height="10" rx="2" fill="#161b22"/>
  <rect x="320" y="89" width="10" height="10" rx="2" fill="#161b22"/>
  <rect x="320" y="102" width="10" height="10" rx="2" fill="#39d353"/>
  <rect x="333" y="24" width="10" height="10" rx="2" fill="#161b22"/>
  <rect x="333" y="37" width="10" height="10" rx="2" fill="#006d32"/>
  <rect x="333" y="50" width="10" height="10" rx="2" fill="#161b22"/>
  <rect x="333" y="63" width="10" height="10" rx="2" fill="#0e4429"/>
  <rect x="333" y="76" width="10" height="10" rx="2" fill="#0e4429"/>
  <rect x="333" y="89" width="10" height="10" rx="2" fill="#39d353"/>
  <rect x="333" y="102" width="10" height="10" rx="2" fill="#161b22"/>
  <rect x="346" y="24" width="10" height="10" rx="2" fill="#161b22"/>
  <rect x="346" y="37" width="10" height="10" rx="2" fill="#39d353"/>
  <rect x="346" y="50" width="10" height="10" rx="2" fill="#39d353"/>
  <rect x="346" y="63" width="10" height="10" rx="2" fill="#39d353"/>
  <rect x="346" y="76" width="10" height="10" rx="2" fill="#0e4429"/>
  <rect x="346" y="89" width="10" height="10" rx="2" fill="#006d32"/>
  <rect x="346" y="102" width="10" height="10" rx="2" fill="#161b22"/>
  <rect x="359" y="24" width="10" height="10" rx="2" fill="#26a641"/>
  <rect x="359" y="37" width="10" height="10" rx="2" fill="#161b22"/>
  <rect x="359" y="50" width="10" height="10" rx="2" fill="#39d353"/>
  <rect x="359" y="63" width="10" height="10" rx="2" fill="#161b22"/>
  <rect x="359" y="76" width="10" height="10" rx="2" fill="#161b22"/>
  <rect x="359" y="89" width="10" height="10" rx="2" fill="#161b22"/>
  <rect x="359" y="102" width="10" height="10" rx="2" fill="#26a641"/>
  <rect x="372" y="24" width="10" height="10" rx="2" fill="#0e4429"/>
  <rect x="372" y="37" width="10" height="10" rx="2" fill="#161b22"/>
  <rect x="372" y="50" width="10" height="10" rx="2" fill="#161b22"/>
  <rect x="372" y="63" width="10" height="10" rx="2" fill="#161b22"/>
  <rect x="372" y="76" width="10" height="10" rx="2" fill="#006d32"/>
  <rect x="372" y="89" width="10" height="10" rx="2" fill="#39d353"/>
  <rect x="372" y="102" width="10" height="10" rx="2" fill="#006d32"/>
  <rect x="385" y="24" width="10" height="10" rx="2" fill="#26a641"/>
  <rect x="385" y="37" width="10" height="10" rx="2" fill="#0e4429"/>
  <rect x="385" y="50" width="10" height="10" rx="2" fill="#006d32"/>
  <rect x="385" y="63" width="10" height="10" rx="2" fill="#161b22"/>
  <rect x="385" y="76" width="10" height="10" rx="2" fill="#26a641"/>
  <rect x="385" y="89" width="10" height="10" rx="2" fill="#26a641"/>
  <rect x="385" y="102" width="10" height="10" rx="2" fill="#161b22"/>
  <rect x="398" y="24" width="10" height="10" rx="2" fill="#0e4429"/>
  <rect x="398" y="37" width="10" height="10" rx="2" fill="#39d353"/>
  <rect x="398" y="50" width="10" height="10" rx="2" fill="#0e4429"/>
  <rect x="398" y="63" width="10" height="10" rx="2" fill="#39d353"/>
  <rect x="398" y="76" width="10" height="10" rx="2" fill="#39d353"/>
  <rect x="398" y="89" width="10" height="10" rx="2" fill="#0e4429"/>
  <rect x="398" y="102" width="10" height="10" rx="2" fill="#26a641"/>
  <rect x="411" y="24" width="10" height="10" rx="2" fill="#161b22"/>
  <rect x="411" y="37" width="10" height="10" rx="2" fill="#161b22"/>
  <rect x="411" y="50" width="10" height="10" rx="2" fill="#0e4429"/>
  <rect x="411" y="63" width="10" height="10" rx="2" fill="#26a641"/>
  <rect x="411" y="76" width="10" height="10" rx="2" fill="#161b22"/>
  <rect x="411" y="89" width="10" height="10" rx="2" fill="#006d32"/>
  <rect x="411" y="102" width="10" height="10" rx="2" fill="#161b22"/>
  <rect x="424" y="24" width="10" height="10" rx="2" fill="#006d32"/>
  <rect x="424" y="37" width="10" height="10" rx="2" fill="#0e4429"/>
  <rect x="424" y="50" width="10" height="10" rx="2" fill="#161b22"/>
  <rect x="424" y="63" width="10" height="10" rx="2" fill="#0e4429"/>
  <rect x="424" y="76" width="10" height="10" rx="2" fill="#161b22"/>
  <rect x="424" y="89" width="10" height="10" rx="2" fill="#006d32"/>
  <rect x="424" y="102" width="10" height="10" rx="2" fill="#26a641"/>
  <rect x="437" y="24" width="10" height="10" rx="2" fill="#161b22"/>
  <rect x="437" y="37" width="10" height="10" rx="2" fill="#161b22"/>
  <rect x="437" y="50" width="10" height="10" rx="2" fill="#006d32"/>
  <rect x="437" y="63" width="10" height="10" rx="2" fill="#0e4429"/>
  <rect x="437" y="76" width="10" height="10" rx="2" fill="#161b22"/>
  <rect x="437" y="89" width="10" height="10" rx="2" fill="#0e4429"/>
  <rect x="437" y="102" width="10" height="10" rx="2" fill="#161b22"/>
  <rect x="450" y="24" width="10" height="10" rx="2" fill="#006d32"/>
  <rect x="450" y="37" width="10" height="10" rx="2" fill="#0e4429"/>
  <rect x="450" y="50" width="10" height="10" rx="2" fill="#0e4429"/>
  <rect x="450" y="63" width="10" height="10" rx="2" fill="#26a641"/>
  <rect x="450" y="76" width="10" height="10" rx="2" fill="#39d353"/>
  <rect x="450" y="89" width="10" height="10" rx="2" fill="#26a641"/>
  <rect x="450" y="102" width="10" height="10" rx="2" fill="#0e4429"/>
  <rect x="463" y="24" width="10" height="10" rx="2" fill="#0e4429"/>
  <rect x="463" y="37" width="10" height="10" rx="2" fill="#161b22"/>
  <rect x="463" y="50" width="10" height="10" rx="2" fill="#006d32"/>
  <rect x="463" y="63" width="10" height="10" rx="2" fill="#39d353"/>
  <rect x="463" y="76" width="10" height="10" rx="2" fill="#161b22"/>
  <rect x="463" y="89" width="10" height="10" rx="2" fill="#006d32"/>
  <rect x="463" y="102" width="10" height="10" rx="2" fill="#161b22"/>
  <rect x="476" y="24" width="10" height="10" rx="2" fill="#161b22"/>
  <rect x="476" y="37" width="10" height="10" rx="2" fill="#0e4429"/>
  <rect x="476" y="50" width="10" height="10" rx="2" fill="#0e4429"/>
  <rect x="476" y="63" width="10" height="10" rx="2" fill="#161b22"/>
  <rect x="476" y="76" width="10" height="10" rx="2" fill="#161b22"/>
  <rect x="476" y="89" width="10" height="10" rx="2" fill="#161b22"/>
  <rect x="476" y="102" width="10" height="10" rx="2" fill="#26a641"/>
  <rect x="489" y="24" width="10" height="10" rx="2" fill="#006d32"/>
  <rect x="489" y="37" width="10" height="10" rx="2" fill="#0e4429"/>
  <rect x="489" y="50" width="10" height="10" rx="2" fill="#26a641"/>
  <rect x="489" y="63" width="10" height="10" rx="2" fill="#006d32"/>
  <rect x="489" y="76" width="10" height="10" rx="2" fill="#161b22"/>
  <rect x="489" y="89" width="10" height="10" rx="2" fill="#006d32"/>
  <rect x="489" y="102" width="10" height="10" rx="2" fill="#39d353"/>
  <rect x="502" y="24" width="10" height="10" rx="2" fill="#0e4429"/>
  <rect x="502" y="37" width="10" height="10" rx="2" fill="#39d353"/>
  <rect x="502" y="50" width="10" height="10" rx="2" fill="#39d353"/>
  <rect x="502" y="63" width="10" height="10" rx="2" fill="#0e4429"/>
  <rect x="502" y="76" width="10" height="10" rx="2" fill="#161b22"/>
  <rect x="502" y="89" width="10" height="10" rx="2" fill="#0e4429"/>
  <rect x="502" y="102" width="10" height="10" rx="2" fill="#0e4429"/>
  <rect x="515" y="24" width="10" height="10" rx="2" fill="#26a641"/>
  <rect x="515" y="37" width="10" height="10" rx="2" fill="#161b22"/>
  <rect x="515" y="50" width="10" height="10" rx="2" fill="#161b22"/>
  <rect x="515" y="63" width="10" height="10" rx="2" fill="#161b22"/>
  <rect x="515" y="76" width="10" height="10" rx="2" fill="#161b22"/>
  <rect x="515" y="89" width="10" height="10" rx="2" fill="#161b22"/>
  <rect x="515" y="102" width="10" height="10" rx="2" fill="#39d353"/>
  <rect x="528" y="24" width="10" height="10" rx="2" fill="#006d32"/>
  <rect x="528" y="37" width="10" height="10" rx="2" fill="#161b22"/>
  <rect x="528" y="50" width="10" height="10" rx="2" fill="#161b22"/>
  <rect x="528" y="63" width="10" height="10" rx="2" fill="#161b22"/>
  <rect x="528" y="76" width="10" height="10" rx="2" fill="#26a641"/>
  <rect x="528" y="89" width="10" height="10" rx="2" fill="#39d353"/>
  <rect x="528" y="102" width="10" height="10" rx="2" fill="#26a641"/>
  <rect x="541" y="24" width="10" height="10" rx="2" fill="#0e4429"/>
  <rect x="541" y="37" width="10" height="10" rx="2" fill="#161b22"/>
  <rect x="541" y="50" width="10" height="10" rx="2" fill="#39d353"/>
  <rect x="541" y="63" width="10" height="10" rx="2" fill="#006d32"/>
  <rect x="541" y="76" width="10" height="10" rx="2" fill="#26a641"/>
  <rect x="541" y="89" width="10" height="10" rx="2" fill="#39d353"/>
  <rect x="541" y="102" width="10" height="10" rx="2" fill="#161b22"/>
  <rect x="554" y="24" width="10" height="10" rx="2" fill="#161b22"/>
  <rect x="554" y="37" width="10" height="10" rx="2" fill="#161b22"/>
  <rect x="554" y="50" width="10" height="10" rx="2" fill="#0e4429"/>
  <rect x="554" y="63" width="10" height="10" rx="2" fill="#26a641"/>
  <rect x="554" y="76" width="10" height="10" rx="2" fill="#161b22"/>
  <rect x="554" y="89" width="10" height="10" rx="2" fill="#161b22"/>
  <rect x="554" y="102" width="10" height="10" rx="2" fill="#161b22"/>
  <rect x="567" y="24" width="10" height="10" rx="2" fill="#0e4429"/>
  <rect x="567" y="37" width="10" height="10" rx="2" fill="#161b22"/>
  <rect x="567" y="50" width="10" height="10" rx="2" fill="#161b22"/>
  <rect x="567" y="63" width="10" height="10" rx="2" fill="#0e4429"/>
  <rect x="567" y="76" width="10" height="10" rx="2" fill="#26a641"/>
  <rect x="567" y="89" width="10" height="10" rx="2" fill="#0e4429"/>
  <rect x="567" y="102" width="10" height="10" rx="2" fill="#26a641"/>
  <rect x="580" y="24" width="10" height="10" rx="2" fill="#26a641"/>
  <rect x="580" y="37" width="10" height="10" rx="2" fill="#0e4429"/>
  <rect x="580" y="50" width="10" height="10" rx="2" fill="#161b22"/>
  <rect x="580" y="63" width="10" height="10" rx="2" fill="#161b22"/>
  <rect x="580" y="76" width="10" height="10" rx="2" fill="#26a641"/>
  <rect x="580" y="89" width="10" height="10" rx="2" fill="#0e4429"/>
  <rect x="580" y="102" width="10" height="10" rx="2" fill="#0e4429"/>
  <rect x="593" y="24" width="10" height="10" rx="2" fill="#26a641"/>
  <rect x="593" y="37" width="10" height="10" rx="2" fill="#0e4429"/>
  <rect x="593" y="50" width="10" height="10" rx="2" fill="#161b22"/>
  <rect x="593" y="63" width="10" height="10" rx="2" fill="#0e4429"/>
  <rect x="593" y="76" width="10" height="10" rx="2" fill="#161b22"/>
  <rect x="593" y="89" width="10" height="10" rx="2" fill="#161b22"/>
  <rect x="593" y="102" width="10" height="10" rx="2" fill="#161b22"/>
  <rect x="606" y="24" width="10" height="10" rx="2" fill="#161b22"/>
  <rect x="606" y="37" width="10" height="10" rx="2" fill="#006d32"/>
  <rect x="606" y="50" width="10" height="10" rx="2" fill="#0e4429"/>
  <rect x="606" y="63" width="10" height="10" rx="2" fill="#0e4429"/>
  <rect x="606" y="76" width="10" height="10" rx="2" fill="#161b22"/>
  <rect x="606" y="89" width="10" height="10" rx="2" fill="#39d353"/>
  <rect x="606" y="102" width="10" height="10" rx="2" fill="#161b22"/>
  <rect x="619" y="24" width="10" height="10" rx="2" fill="#39d353"/>
  <rect x="619" y="37" width="10" height="10" rx="2" fill="#0e4429"/>
  <rect x="619" y="50" width="10" height="10" rx="2" fill="#0e4429"/>
  <rect x="619" y="63" width="10" height="10" rx="2" fill="#0e4429"/>
  <rect x="619" y="76" width="10" height="10" rx="2" fill="#161b22"/>
  <rect x="619" y="89" width="10" height="10" rx="2" fill="#006d32"/>
  <rect x="619" y="102" width="10" height="10" rx="2" fill="#006d32"/>
  <rect x="632" y="24" width="10" height="10" rx="2" fill="#161b22"/>
  <rect x="632" y="37" width="10" height="10" rx="2" fill="#161b22"/>
  <rect x="632" y="50" width="10" height="10" rx="2" fill="#26a641"/>
  <rect x="632" y="63" width="10" height="10" rx="2" fill="#161b22"/>
  <rect x="632" y="76" width="10" height="10" rx="2" fill="#0e4429"/>
  <rect x="632" y="89" width="10" height="10" rx="2" fill="#39d353"/>
  <rect x="632" y="102" width="10" height="10" rx="2" fill="#39d353"/>
  <rect x="645" y="24" width="10" height="10" rx="2" fill="#161b22"/>
  <rect x="645" y="37" width="10" height="10" rx="2" fill="#0e4429"/>
  <rect x="645" y="50" width="10" height="10" rx="2" fill="#0e4429"/>
  <rect x="645" y="63" width="10" height="10" rx="2" fill="#0e4429"/>
  <rect x="645" y="76" width="10" height="10" rx="2" fill="#26a641"/>
  <rect x="645" y="89" width="10" height="10" rx="2" fill="#161b22"/>
  <rect x="645" y="102" width="10" height="10" rx="2" fill="#006d32"/>
  <rect x="658" y="24" width="10" height="10" rx="2" fill="#161b22"/>
  <rect x="658" y="37" width="10" height="10" rx="2" fill="#161b22"/>
  <rect x="658" y="50" width="10" height="10" rx="2" fill="#161b22"/>
  <rect x="658" y="63" width="10" height="10" rx="2" fill="#161b22"/>
  <rect x="658" y="76" width="10" height="10" rx="2" fill="#006d32"/>
  <rect x="658" y="89" width="10" height="10" rx="2" fill="#0e4429"/>
  <rect x="658" y="102" width="10" height="10" rx="2" fill="#161b22"/>
  <rect x="671" y="24" width="10" height="10" rx="2" fill="#161b22"/>
  <rect x="671" y="37" width="10" height="10" rx="2" fill="#161b22"/>
  <rect x="671" y="50" width="10" height="10" rx="2" fill="#161b22"/>
  <rect x="671" y="63" width="10" height="10" rx="2" fill="#0e4429"/>
  <rect x="671" y="76" width="10" height="10" rx="2" fill="#0e4429"/>
  <rect x="671" y="89" width="10" height="10" rx="2" fill="#0e4429"/>
  <rect x="671" y="102" width="10" height="10" rx="2" fill="#006d32"/>
  <rect x="684" y="24" width="10" height="10" rx="2" fill="#161b22"/>
  <rect x="684" y="37" width="10" height="10" rx="2" fill="#161b22"/>
  <rect x="684" y="50" width="10" height="10" rx="2" fill="#0e4429"/>
  <rect x="684" y="63" width="10" height="10" rx="2" fill="#0e4429"/>
  <rect x="684" y="76" width="10" height="10" rx="2" fill="#161b22"/>
  <rect x="684" y="89" width="10" height="10" rx="2" fill="#161b22"/>
  <rect x="684" y="102" width="10" height="10" rx="2" fill="#39d353"/>
  <rect x="697" y="24" width="10" height="10" rx="2" fill="#161b22"/>
  <rect x="697" y="37" width="10" height="10" rx="2" fill="#0e4429"/>
  <rect x="697" y="50" width="10" height="10" rx="2" fill="#006d32"/>
  <rect x="697" y="63" width="10" height="10" rx="2" fill="#161b22"/>
  <rect x="697" y="76" width="10" height="10" rx="2" fill="#0e4429"/>
  <rect x="697" y="89" width="10" height="10" rx="2" fill="#006d32"/>
  <rect x="697" y="102" width="10" height="10" rx="2" fill="#0e4429"/>
  <rect x="710" y="24" width="10" height="10" rx="2" fill="#0e4429"/>
  <rect x="710" y="37" width="10" height="10" rx="2" fill="#39d353"/>
  <rect x="710" y="50" width="10" height="10" rx="2" fill="#0e4429"/>
  <rect x="710" y="63" width="10" height="10" rx="2" fill="#0e4429"/>
  <rect x="710" y="76" width="10" height="10" rx="2" fill="#39d353"/>
  <rect x="710" y="89" width="10" height="10" rx="2" fill="#0e4429"/>
  <rect x="710" y="102" width="10" height="10" rx="2" fill="#26a641"/>
</g>
<g stroke="rgba(220,230,255,0.82)" stroke-linecap="round" stroke-width="1.20" filter="url(#sg)">
  <line x1="208.00" y1="55.00" x2="156.00" y2="42.00" stroke-dasharray="53.6"><animate attributeName="stroke-dashoffset" values="53.6;53.6;0;0" keyTimes="0;0.0287;0.0609;1" dur="27.90s" repeatCount="indefinite" calcMode="linear"/></line>
  <line x1="208.00" y1="55.00" x2="247.00" y2="42.00" stroke-dasharray="41.1"><animate attributeName="stroke-dashoffset" values="41.1;41.1;0;0" keyTimes="0;0.0824;0.1147;1" dur="27.90s" repeatCount="indefinite" calcMode="linear"/></line>
  <line x1="208.00" y1="55.00" x2="286.00" y2="81.00" stroke-dasharray="82.2"><animate attributeName="stroke-dashoffset" values="82.2;82.2;0;0" keyTimes="0;0.1362;0.1685;1" dur="27.90s" repeatCount="indefinite" calcMode="linear"/></line>
  <line x1="208.00" y1="55.00" x2="234.00" y2="94.00" stroke-dasharray="46.9"><animate attributeName="stroke-dashoffset" values="46.9;46.9;0;0" keyTimes="0;0.1900;0.2222;1" dur="27.90s" repeatCount="indefinite" calcMode="linear"/></line>
  <line x1="208.00" y1="55.00" x2="208.00" y2="107.00" stroke-dasharray="52.0"><animate attributeName="stroke-dashoffset" values="52.0;52.0;0;0" keyTimes="0;0.2437;0.2760;1" dur="27.90s" repeatCount="indefinite" calcMode="linear"/></line>
  <line x1="208.00" y1="55.00" x2="182.00" y2="94.00" stroke-dasharray="46.9"><animate attributeName="stroke-dashoffset" values="46.9;46.9;0;0" keyTimes="0;0.2975;0.3297;1" dur="27.90s" repeatCount="indefinite" calcMode="linear"/></line>
  <line x1="208.00" y1="55.00" x2="130.00" y2="81.00" stroke-dasharray="82.2"><animate attributeName="stroke-dashoffset" values="82.2;82.2;0;0" keyTimes="0;0.3513;0.3835;1" dur="27.90s" repeatCount="indefinite" calcMode="linear"/></line>
</g>
<path d="M 189.80,50.45 L 221.65,50.45 L 235.30,64.10 L 217.10,68.65 L 208.00,73.20 L 198.90,68.65 L 180.70,64.10 Z" fill="none" stroke="rgba(220,230,255,0.82)" stroke-width="0.80" stroke-linejoin="round" filter="url(#sg)" stroke-dasharray="125.4"><animate attributeName="stroke-dashoffset" values="125.4;125.4;0;0" keyTimes="0;0.4050;0.5125;1" dur="27.90s" repeatCount="indefinite" calcMode="linear"/></path>
<path d="M 171.60,45.90 L 235.30,45.90 L 262.60,73.20 L 226.20,82.30 L 208.00,91.40 L 189.80,82.30 L 153.40,73.20 Z" fill="none" stroke="rgba(220,230,255,0.82)" stroke-width="0.98" stroke-linejoin="round" filter="url(#sg)" stroke-dasharray="250.9"><animate attributeName="stroke-dashoffset" values="250.9;250.9;0;0" keyTimes="0;0.5376;0.6452;1" dur="27.90s" repeatCount="indefinite" calcMode="linear"/></path>
<path d="M 156.00,42.00 L 247.00,42.00 L 286.00,81.00 L 234.00,94.00 L 208.00,107.00 L 182.00,94.00 L 130.00,81.00 Z" fill="none" stroke="rgba(220,230,255,0.82)" stroke-width="1.16" stroke-linejoin="round" filter="url(#sg)" stroke-dasharray="358.4"><animate attributeName="stroke-dashoffset" values="358.4;358.4;0;0" keyTimes="0;0.6703;0.7778;1" dur="27.90s" repeatCount="indefinite" calcMode="linear"/></path>
<circle cx="208.00" cy="55.00" r="2.6" fill="rgba(255,255,255,0.97)" opacity="0"><animate attributeName="opacity" values="0;0;1;1" keyTimes="0;0.0287;0.0412;1" dur="27.90s" repeatCount="indefinite" calcMode="linear"/></circle>
<circle cx="156.00" cy="42.00" r="2.0" fill="rgba(255,255,255,0.97)" opacity="0"><animate attributeName="opacity" values="0;0;1;1" keyTimes="0;0.0609;0.0710;1" dur="27.90s" repeatCount="indefinite" calcMode="linear"/></circle>
<circle cx="247.00" cy="42.00" r="2.0" fill="rgba(255,255,255,0.97)" opacity="0"><animate attributeName="opacity" values="0;0;1;1" keyTimes="0;0.1147;0.1247;1" dur="27.90s" repeatCount="indefinite" calcMode="linear"/></circle>
<circle cx="286.00" cy="81.00" r="2.0" fill="rgba(255,255,255,0.97)" opacity="0"><animate attributeName="opacity" values="0;0;1;1" keyTimes="0;0.1685;0.1785;1" dur="27.90s" repeatCount="indefinite" calcMode="linear"/></circle>
<circle cx="234.00" cy="94.00" r="2.0" fill="rgba(255,255,255,0.97)" opacity="0"><animate attributeName="opacity" values="0;0;1;1" keyTimes="0;0.2222;0.2323;1" dur="27.90s" repeatCount="indefinite" calcMode="linear"/></circle>
<circle cx="208.00" cy="107.00" r="2.0" fill="rgba(255,255,255,0.97)" opacity="0"><animate attributeName="opacity" values="0;0;1;1" keyTimes="0;0.2760;0.2860;1" dur="27.90s" repeatCount="indefinite" calcMode="linear"/></circle>
<circle cx="182.00" cy="94.00" r="2.0" fill="rgba(255,255,255,0.97)" opacity="0"><animate attributeName="opacity" values="0;0;1;1" keyTimes="0;0.3297;0.3398;1" dur="27.90s" repeatCount="indefinite" calcMode="linear"/></circle>
<circle cx="130.00" cy="81.00" r="2.0" fill="rgba(255,255,255,0.97)" opacity="0"><animate attributeName="opacity" values="0;0;1;1" keyTimes="0;0.3835;0.3935;1" dur="27.90s" repeatCount="indefinite" calcMode="linear"/></circle>
<g filter="url(#sh)" style="animation:sm 27.90s linear infinite">
  <ellipse cx="0" cy="3.0" rx="2.8" ry="3.5" fill="#8a9acf" opacity="0.90"/>
  <circle  cx="0" cy="0"   r="3.5"             fill="#bdd0ff"/>
  <g stroke="#99aadd" stroke-width="1.2" stroke-linecap="round">
    <line x1="0" y1="0" x2="-4.0" y2="-5.0"/>
    <line x1="0" y1="0" x2="-6.0" y2="-1.5"/>
    <line x1="0" y1="0" x2="-6.0" y2="2.0"/>
    <line x1="0" y1="0" x2="-3.8" y2="5.0"/>
    <line x1="0" y1="0" x2="4.0" y2="-5.0"/>
    <line x1="0" y1="0" x2="6.0" y2="-1.5"/>
    <line x1="0" y1="0" x2="6.0" y2="2.0"/>
    <line x1="0" y1="0" x2="3.8" y2="5.0"/>
  </g>
  <circle cx="-1.3" cy="-1.4" r="0.8" fill="white" opacity="0.96"/>
  <circle cx=" 1.3" cy="-1.4" r="0.8" fill="white" opacity="0.96"/>
</g>
</svg>