<svg xmlns="http://www.w3.org/2000/svg" viewBox="0 0 731 123" width="731" height="123" aria-label="Contribution spider web">
<defs>
  <filter id="sg" x="-30%" y="-30%" width="160%" height="160%"><feGaussianBlur in="SourceGraphic" stdDeviation="1.3" result="b"/><feMerge><feMergeNode in="b"/><feMergeNode in="SourceGraphic"/></feMerge></filter>
  <filter id="sh" x="-80%" y="-80%" width="260%" height="260%"><feGaussianBlur in="SourceGraphic" stdDeviation="3.0" result="b"/><feMerge><feMergeNode in="b"/><feMergeNode in="SourceGraphic"/></feMerge></filter>
</defs>
<style>@keyframes sm{0.00%{transform:translate(321.0px,38.0px)}3.42%{transform:translate(351.0px,68.0px)}7.26%{transform:translate(221.0px,29.0px)}9.83%{transform:translate(351.0px,68.0px)}13.68%{transform:translate(390.0px,29.0px)}16.24%{transform:translate(351.0px,68.0px)}20.09%{transform:translate(416.0px,81.0px)}22.65%{transform:translate(351.0px,68.0px)}26.50%{transform:translate(273.0px,94.0px)}29.06%{transform:translate(351.0px,68.0px)}29.06%{transform:translate(305.5px,54.4px)}33.33%{transform:translate(364.6px,54.4px)}37.61%{transform:translate(373.8px,72.5px)}41.88%{transform:translate(323.7px,77.1px)}41.88%{transform:translate(305.5px,54.4px)}44.87%{transform:translate(351.0px,68.0px)}44.87%{transform:translate(260.0px,40.7px)}49.15%{transform:translate(378.3px,40.7px)}53.42%{transform:translate(396.5px,77.1px)}57.69%{transform:translate(296.4px,86.2px)}57.69%{transform:translate(260.0px,40.7px)}60.68%{transform:translate(351.0px,68.0px)}60.68%{transform:translate(221.0px,29.0px)}64.96%{transform:translate(390.0px,29.0px)}69.23%{transform:translate(416.0px,81.0px)}73.50%{transform:translate(273.0px,94.0px)}73.50%{transform:translate(221.0px,29.0px)}76.50%{transform:translate(351.0px,68.0px)}100.00%{transform:translate(351.0px,68.0px)}}</style>
<rect width="731" height="123" rx="8" fill="#0d1117"/>
<g font-family="'Segoe UI',system-ui,sans-serif" font-size="9" fill="#8b949e">
  <text x="34" y="15">Apr</text>
  <text x="60" y="15">May</text>
  <text x="112" y="15">Jun</text>
  <text x="177" y="15">Jul</text>
  <text x="229" y="15">Aug</text>
  <text x="294" y="15">Sep</text>
  <text x="346" y="15">Oct</text>
  <text x="398" y="15">Nov</text>
  <text x="463" y="15">Dec</text>
  <text x="515" y="15">Jan</text>
  <text x="567" y="15">Feb</text>
  <text x="619" y="15">Mar</text>
  <text x="684" y="15">Apr</text>
  <text x="30" y="45.0" text-anchor="end">Mon</text>
  <text x="30" y="71.0" text-anchor="end">Wed</text>
  <text x="30" y="97.0" text-anchor="end">Fri</text>
</g>
<g>
  <rect x="34" y="24" width="10" height="10" rx="2" fill="#161b22"/>
  <rect x="34" y="37" width="10" height="10" rx="2" fill="#161b22"/>
  <rect x="34" y="50" width="10" height="10" rx="2" fill="#161b22"/>
  <rect x="34" y="63" width="10" height="10" rx="2" fill="#0e4429"/>
  <rect x="34" y="76" width="10" height="10" rx="2" fill="#161b22"/>
  <rect x="34" y="89" width="10" height="10" rx="2" fill="#161b22"/>
  <rect x="34" y="102" width="10" height="10" rx="2" fill="#161b22"/>
  <rect x="47" y="24" width="10" height="10" rx="2" fill="#161b22"/>
  <rect x="47" y="37" width="10" height="10" rx="2" fill="#161b22"/>
  <rect x="47" y="50" width="10" height="10" rx="2" fill="#161b22"/>
  <rect x="47" y="63" width="10" height="10" rx="2" fill="#161b22"/>
  <rect x="47" y="76" width="10" height="10" rx="2" fill="#161b22"/>
  <rect x="47" y="89" width="10" height="10" rx="2" fill="#161b22"/>
  <rect x="47" y="102" width="10" height="10" rx="2" fill="#161b22"/>
  <rect x="60" y="24" width="10" height="10" rx="2" fill="#161b22"/>
  <rect x="60" y="37" width="10" height="10" rx="2" fill="#161b22"/>
  <rect x="60" y="50" width="10" height="10" rx="2" fill="#161b22"/>
  <rect x="60" y="63" width="10" height="10" rx="2" fill="#161b22"/>
  <rect x="60" y="76" width="10" height="10" rx="2" fill="#161b22"/>
  <rect x="60" y="89" width="10" height="10" rx="2" fill="#161b22"/>
  <rect x="60" y="102" width="10" height="10" rx="2" fill="#161b22"/>
  <rect x="73" y="24" width="10" height="10" rx="2" fill="#161b22"/>
  <rect x="73" y="37" width="10" height="10" rx="2" fill="#161b22"/>
  <rect x="73" y="50" width="10" height="10" rx="2" fill="#161b22"/>
  <rect x="73" y="63" width="10" height="10" rx="2" fill="#161b22"/>
  <rect x="73" y="76" width="10" height="10" rx="2" fill="#161b22"/>
  <rect x="73" y="89" width="10" height="10" rx="2" fill="#161b22"/>
  <rect x="73" y="102" width="10" height="10" rx="2" fill="#0e4429"/>
  <rect x="86" y="24" width="10" height="10" rx="2" fill="#161b22"/>
  <rect x="86" y="37" width="10" height="10" rx="2" fill="#161b22"/>
  <rect x="86" y="50" width="10" height="10" rx="2" fill="#161b22"/>
  <rect x="86" y="63" width="10" height="10" rx="2" fill="#161b22"/>
  <rect x="86" y="76" width="10" height="10" rx="2" fill="#161b22"/>
  <rect x="86" y="89" width="10" height="10" rx="2" fill="#26a641"/>
  <rect x="86" y="102" width="10" height="10" rx="2" fill="#161b22"/>
  <rect x="99" y="24" width="10" height="10" rx="2" fill="#161b22"/>
  <rect x="99" y="37" width="10" height="10" rx="2" fill="#26a641"/>
  <rect x="99" y="50" width="10" height="10" rx="2" fill="#161b22"/>
  <rect x="99" y="63" width="10" height="10" rx="2" fill="#161b22"/>
  <rect x="99" y="76" width="10" height="10" rx="2" fill="#161b22"/>
  <rect x="99" y="89" width="10" height="10" rx="2" fill="#161b22"/>
  <rect x="99" y="102" width="10" height="10" rx="2" fill="#161b22"/>
  <rect x="112" y="24" width="10" height="10" rx="2" fill="#161b22"/>
  <rect x="112" y="37" width="10" height="10" rx="2" fill="#161b22"/>
  <rect x="112" y="50" width="10" height="10" rx="2" fill="#161b22"/>
  <rect x="112" y="63" width="10" height="10" rx="2" fill="#161b22"/>
  <rect x="112" y="76" width="10" height="10" rx="2" fill="#161b22"/>
  <rect x="112" y="89" width="10" height="10" rx="2" fill="#161b22"/>
  <rect x="112" y="102" width="10" height="10" rx="2" fill="#161b22"/>
  <rect x="125" y="24" width="10" height="10" rx="2" fill="#161b22"/>
  <rect x="125" y="37" width="10" height="10" rx="2" fill="#161b22"/>
  <rect x="125" y="50" width="10" height="10" rx="2" fill="#161b22"/>
  <rect x="125" y="63" width="10" height="10" rx="2" fill="#161b22"/>
  <rect x="125" y="76" width="10" height="10" rx="2" fill="#161b22"/>
  <rect x="125" y="89" width="10" height="10" rx="2" fill="#161b22"/>
  <rect x="125" y="102" width="10" height="10" rx="2" fill="#161b22"/>
  <rect x="138" y="24" width="10" height="10" rx="2" fill="#161b22"/>
  <rect x="138" y="37" width="10" height="10" rx="2" fill="#161b22"/>
  <rect x="138" y="50" width="10" height="10" rx="2" fill="#161b22"/>
  <rect x="138" y="63" width="10" height="10" rx="2" fill="#161b22"/>
  <rect x="138" y="76" width="10" height="10" rx="2" fill="#161b22"/>
  <rect x="138" y="89" width="10" height="10" rx="2" fill="#161b22"/>
  <rect x="138" y="102" width="10" height="10" rx="2" fill="#161b22"/>
  <rect x="151" y="24" width="10" height="10" rx="2" fill="#26a641"/>
  <rect x="151" y="37" width="10" height="10" rx="2" fill="#0e4429"/>
  <rect x="151" y="50" width="10" height="10" rx="2" fill="#161b22"/>
  <rect x="151" y="63" width="10" height="10" rx="2" fill="#161b22"/>
  <rect x="151" y="76" width="10" height="10" rx="2" fill="#161b22"/>
  <rect x="151" y="89" width="10" height="10" rx="2" fill="#161b22"/>
  <rect x="151" y="102" width="10" height="10" rx="2" fill="#161b22"/>
  <rect x="164" y="24" width="10" height="10" rx="2" fill="#161b22"/>
  <rect x="164" y="37" width="10" height="10" rx="2" fill="#161b22"/>
  <rect x="164" y="50" width="10" height="10" rx="2" fill="#161b22"/>
  <rect x="164" y="63" width="10" height="10" rx="2" fill="#161b22"/>
  <rect x="164" y="76" width="10" height="10" rx="2" fill="#161b22"/>
  <rect x="164" y="89" width="10" height="10" rx="2" fill="#161b22"/>
  <rect x="164" y="102" width="10" height="10" rx="2" fill="#161b22"/>
  <rect x="177" y="24" width="10" height="10" rx="2" fill="#161b22"/>
  <rect x="177" y="37" width="10" height="10" rx="2" fill="#161b22"/>
  <rect x="177" y="50" width="10" height="10" rx="2" fill="#161b22"/>
  <rect x="177" y="63" width="10" height="10" rx="2" fill="#161b22"/>
  <rect x="177" y="76" width="10" height="10" rx="2" fill="#161b22"/>
  <rect x="177" y="89" width="10" height="10" rx="2" fill="#161b22"/>
  <rect x="177" y="102" width="10" height="10" rx="2" fill="#161b22"/>
  <rect x="190" y="24" width="10" height="10" rx="2" fill="#161b22"/>
  <rect x="190" y="37" width="10" height="10" rx="2" fill="#161b22"/>
  <rect x="190" y="50" width="10" height="10" rx="2" fill="#161b22"/>
  <rect x="190" y="63" width="10" height="10" rx="2" fill="#161b22"/>
  <rect x="190" y="76" width="10" height="10" rx="2" fill="#161b22"/>
  <rect x="190" y="89" width="10" height="10" rx="2" fill="#161b22"/>
  <rect x="190" y="102" width="10" height="10" rx="2" fill="#161b22"/>
  <rect x="203" y="24" width="10" height="10" rx="2" fill="#161b22"/>
  <rect x="203" y="37" width="10" height="10" rx="2" fill="#161b22"/>
  <rect x="203" y="50" width="10" height="10" rx="2" fill="#161b22"/>
  <rect x="203" y="63" width="10" height="10" rx="2" fill="#161b22"/>
  <rect x="203" y="76" width="10" height="10" rx="2" fill="#161b22"/>
  <rect x="203" y="89" width="10" height="10" rx="2" fill="#161b22"/>
  <rect x="203" y="102" width="10" height="10" rx="2" fill="#161b22"/>
  <rect x="216" y="24" width="10" height="10" rx="2" fill="#26a641"/>
  <rect x="216" y="37" width="10" height="10" rx="2" fill="#0e4429"/>
  <rect x="216" y="50" width="10" height="10" rx="2" fill="#161b22"/>
  <rect x="216" y="63" width="10" height="10" rx="2" fill="#161b22"/>
  <rect x="216" y="76" width="10" height="10" rx="2" fill="#161b22"/>
  <rect x="216" y="89" width="10" height="10" rx="2" fill="#161b22"/>
  <rect x="216" y="102" width="10" height="10" rx="2" fill="#161b22"/>
  <rect x="229" y="24" width="10" height="10" rx="2" fill="#161b22"/>
  <rect x="229" y="37" width="10" height="10" rx="2" fill="#161b22"/>
  <rect x="229" y="50" width="10" height="10" rx="2" fill="#161b22"/>
  <rect x="229" y="63" width="10" height="10" rx="2" fill="#161b22"/>
  <rect x="229" y="76" width="10" height="10" rx="2" fill="#161b22"/>
  <rect x="229" y="89" width="10" height="10" rx="2" fill="#161b22"/>
  <rect x="229" y="102" width="10" height="10" rx="2" fill="#161b22"/>
  <rect x="242" y="24" width="10" height="10" rx="2" fill="#161b22"/>
  <rect x="242" y="37" width="10" height="10" rx="2" fill="#161b22"/>
  <rect x="242" y="50" width="10" height="10" rx="2" fill="#161b22"/>
  <rect x="242" y="63" width="10" height="10" rx="2" fill="#161b22"/>
  <rect x="242" y="76" width="10" height="10" rx="2" fill="#161b22"/>
  <rect x="242" y="89" width="10" height="10" rx="2" fill="#161b22"/>
  <rect x="242" y="102" width="10" height="10" rx="2" fill="#161b22"/>
  <rect x="255" y="24" width="10" height="10" rx="2" fill="#161b22"/>
  <rect x="255" y="37" width="10" height="10" rx="2" fill="#161b22"/>
  <rect x="255" y="50" width="10" height="10" rx="2" fill="#161b22"/>
  <rect x="255" y="63" width="10" height="10" rx="2" fill="#161b22"/>
  <rect x="255" y="76" width="10" height="10" rx="2" fill="#161b22"/>
  <rect x="255" y="89" width="10" height="10" rx="2" fill="#161b22"/>
  <rect x="255" y="102" width="10" height="10" rx="2" fill="#161b22"/>
  <rect x="268" y="24" width="10" height="10" rx="2" fill="#161b22"/>
  <rect x="268" y="37" width="10" height="10" rx="2" fill="#161b22"/>
  <rect x="268" y="50" width="10" height="10" rx="2" fill="#161b22"/>
  <rect x="268" y="63" width="10" height="10" rx="2" fill="#161b22"/>
  <rect x="268" y="76" width="10" height="10" rx="2" fill="#0e4429"/>
  <rect x="268" y="89" width="10" height="10" rx="2" fill="#006d32"/>
  <rect x="268" y="102" width="10" height="10" rx="2" fill="#006d32"/>
  <rect x="281" y="24" width="10" height="10" rx="2" fill="#161b22"/>
  <rect x="281" y="37" width="10" height="10" rx="2" fill="#161b22"/>
  <rect x="281" y="50" width="10" height="10" rx="2" fill="#161b22"/>
  <rect x="281" y="63" width="10" height="10" rx="2" fill="#161b22"/>
  <rect x="281" y="76" width="10" height="10" rx="2" fill="#161b22"/>
  <rect x="281" y="89" width="10" height="10" rx="2" fill="#161b22"/>
  <rect x="281" y="102" width="10" height="10" rx="2" fill="#161b22"/>
  <rect x="294" y="24" width="10" height="10" rx="2" fill="#161b22"/>
  <rect x="294" y="37" width="10" height="10" rx="2" fill="#161b22"/>
  <rect x="294" y="50" width="10" height="10" rx="2" fill="#161b22"/>
  <rect x="294" y="63" width="10" height="10" rx="2" fill="#161b22"/>
  <rect x="294" y="76" width="10" height="10" rx="2" fill="#161b22"/>
  <rect x="294" y="89" width="10" height="10" rx="2" fill="#161b22"/>
  <rect x="294" y="102" width="10" height="10" rx="2" fill="#0e4429"/>
  <rect x="307" y="24" width="10" height="10" rx="2" fill="#161b22"/>
  <rect x="307" y="37" width="10" height="10" rx="2" fill="#161b22"/>
  <rect x="307" y="50" width="10" height="10" rx="2" fill="#161b22"/>
  <rect x="307" y="63" width="10" height="10" rx="2" fill="#161b22"/>
  <rect x="307" y="76" width="10" height="10" rx="2" fill="#161b22"/>
  <rect x="307" y="89" width="10" height="10" rx="2" fill="#161b22"/>
  <rect x="307" y="102" width="10" height="10" rx="2" fill="#161b22"/>
  <rect x="320" y="24" width="10" height="10" rx="2" fill="#161b22"/>
  <rect x="320" y="37" width="10" height="10" rx="2" fill="#161b22"/>
  <rect x="320" y="50" width="10" height="10" rx="2" fill="#161b22"/>
  <rect x="320" y="63" width="10" height="10" rx="2" fill="#161b22"/>
  <rect x="320" y="76" width="10" height="10" rx="2" fill="#161b22"/>
  <rect x="320" y="89" width="10" height="10" rx="2" fill="#161b22"/>
  <rect x="320" y="102" width="10" height="10" rx="2" fill="#161b22"/>
  <rect x="333" y="24" width="10" height="10" rx="2" fill="#161b22"/>
  <rect x="333" y="37" width="10" height="10" rx="2" fill="#161b22"/>
  <rect x="333" y="50" width="10" height="10" rx="2" fill="#161b22"/>
  <rect x="333" y="63" width="10" height="10" rx="2" fill="#161b22"/>
  <rect x="333" y="76" width="10" height="10" rx="2" fill="#161b22"/>
  <rect x="333" y="89" width="10" height="10" rx="2" fill="#161b22"/>
  <rect x="333" y="102" width="10" height="10" rx="2" fill="#161b22"/>
  <rect x="346" y="24" width="10" height="10" rx="2" fill="#161b22"/>
  <rect x="346" y="37" width="10" height="10" rx="2" fill="#161b22"/>
  <rect x="346" y="50" width="10" height="10" rx="2" fill="#161b22"/>
  <rect x="346" y="63" width="10" height="10" rx="2" fill="#39d353"/>
  <rect x="346" y="76" width="10" height="10" rx="2" fill="#39d353"/>
  <rect x="346" y="89" width="10" height="10" rx="2" fill="#161b22"/>
  <rect x="346" y="102" width="10" height="10" rx="2" fill="#161b22"/>
  <rect x="359" y="24" width="10" height="10" rx="2" fill="#161b22"/>
  <rect x="359" y="37" width="10" height="10" rx="2" fill="#161b22"/>
  <rect x="359" y="50" width="10" height="10" rx="2" fill="#161b22"/>
  <rect x="359" y="63" width="10" height="10" rx="2" fill="#161b22"/>
  <rect x="359" y="76" width="10" height="10" rx="2" fill="#161b22"/>
  <rect x="359" y="89" width="10" height="10" rx="2" fill="#161b22"/>
  <rect x="359" y="102" width="10" height="10" rx="2" fill="#161b22"/>
  <rect x="372" y="24" width="10" height="10" rx="2" fill="#161b22"/>
  <rect x="372" y="37" width="10" height="10" rx="2" fill="#161b22"/>
  <rect x="372" y="50" width="10" height="10" rx="2" fill="#161b22"/>
  <rect x="372" y="63" width="10" height="10" rx="2" fill="#161b22"/>
  <rect x="372" y="76" width="10" height="10" rx="2" fill="#161b22"/>
  <rect x="372" y="89" width="10" height="10" rx="2" fill="#161b22"/>
  <rect x="372" y="102" width="10" height="10" rx="2" fill="#161b22"/>
  <rect x="385" y="24" width="10" height="10" rx="2" fill="#0e4429"/>
  <rect x="385" y="37" width="10" height="10" rx="2" fill="#161b22"/>
  <rect x="385" y="50" width="10" height="10" rx="2" fill="#161b22"/>
  <rect x="385" y="63" width="10" height="10" rx="2" fill="#161b22"/>
  <rect x="385" y="76" width="10" height="10" rx="2" fill="#161b22"/>
  <rect x="385" y="89" width="10" height="10" rx="2" fill="#161b22"/>
  <rect x="385" y="102" width="10" height="10" rx="2" fill="#161b22"/>
  <rect x="398" y="24" width="10" height="10" rx="2" fill="#161b22"/>
  <rect x="398" y="37" width="10" height="10" rx="2" fill="#161b22"/>
  <rect x="398" y="50" width="10" height="10" rx="2" fill="#161b22"/>
  <rect x="398" y="63" width="10" height="10" rx="2" fill="#161b22"/>
  <rect x="398" y="76" width="10" height="10" rx="2" fill="#161b22"/>
  <rect x="398" y="89" width="10" height="10" rx="2" fill="#161b22"/>
  <rect x="398" y="102" width="10" height="10" rx="2" fill="#161b22"/>
  <rect x="411" y="24" width="10" height="10" rx="2" fill="#161b22"/>
  <rect x="411" y="37" width="10" height="10" rx="2" fill="#161b22"/>
  <rect x="411" y="50" width="10" height="10" rx="2" fill="#161b22"/>
  <rect x="411" y="63" width="10" height="10" rx="2" fill="#161b22"/>
  <rect x="411" y="76" width="10" height="10" rx="2" fill="#39d353"/>
  <rect x="411" y="89" width="10" height="10" rx="2" fill="#161b22"/>
  <rect x="411" y="102" width="10" height="10" rx="2" fill="#161b22"/>
  <rect x="424" y="24" width="10" height="10" rx="2" fill="#161b22"/>
  <rect x="424" y="37" width="10" height="10" rx="2" fill="#161b22"/>
  <rect x="424" y="50" width="10" height="10" rx="2" fill="#161b22"/>
  <rect x="424" y="63" width="10" height="10" rx="2" fill="#161b22"/>
  <rect x="424" y="76" width="10" height="10" rx="2" fill="#161b22"/>
  <rect x="424" y="89" width="10" height="10" rx="2" fill="#161b22"/>
  <rect x="424" y="102" width="10" height="10" rx="2" fill="#161b22"/>
  <rect x="437" y="24" width="10" height="10" rx="2" fill="#161b22"/>
  <rect x="437" y="37" width="10" height="10" rx="2" fill="#161b22"/>
  <rect x="437" y="50" width="10" height="10" rx="2" fill="#161b22"/>
  <rect x="437" y="63" width="10" height="10" rx="2" fill="#161b22"/>
  <rect x="437" y="76" width="10" height="10" rx="2" fill="#161b22"/>
  <rect x="437" y="89" width="10" height="10" rx="2" fill="#161b22"/>
  <rect x="437" y="102" width="10" height="10" rx="2" fill="#161b22"/>
  <rect x="450" y="24" width="10" height="10" rx="2" fill="#161b22"/>
  <rect x="450" y="37" width="10" height="10" rx="2" fill="#161b22"/>
  <rect x="450" y="50" width="10" height="10" rx="2" fill="#161b22"/>
  <rect x="450" y="63" width="10" height="10" rx="2" fill="#161b22"/>
  <rect x="450" y="76" width="10" height="10" rx="2" fill="#161b22"/>
  <rect x="450" y="89" width="10" height="10" rx="2" fill="#161b22"/>
  <rect x="450" y="102" width="10" height="10" rx="2" fill="#161b22"/>
  <rect x="463" y="24" width="10" height="10" rx="2" fill="#161b22"/>
  <rect x="463" y="37" width="10" height="10" rx="2" fill="#161b22"/>
  <rect x="463" y="50" width="10" height="10" rx="2" fill="#161b22"/>
  <rect x="463" y="63" width="10" height="10" rx="2" fill="#161b22"/>
  <rect x="463" y="76" width="10" height="10" rx="2" fill="#161b22"/>
  <rect x="463" y="89" width="10" height="10" rx="2" fill="#161b22"/>
  <rect x="463" y="102" width="10" height="10" rx="2" fill="#161b22"/>
  <rect x="476" y="24" width="10" height="10" rx="2" fill="#161b22"/>
  <rect x="476" y="37" width="10" height="10" rx="2" fill="#161b22"/>
  <rect x="476" y="50" width="10" height="10" rx="2" fill="#161b22"/>
  <rect x="476" y="63" width="10" height="10" rx="2" fill="#161b22"/>
  <rect x="476" y="76" width="10" height="10" rx="2" fill="#161b22"/>
  <rect x="476" y="89" width="10" height="10" rx="2" fill="#161b22"/>
  <rect x="476" y="102" width="10" height="10" rx="2" fill="#161b22"/>
  <rect x="489" y="24" width="10" height="10" rx="2" fill="#161b22"/>
  <rect x="489" y="37" width="10" height="10" rx="2" fill="#161b22"/>
  <rect x="489" y="50" width="10" height="10" rx="2" fill="#161b22"/>
  <rect x="489" y="63" width="10" height="10" rx="2" fill="#161b22"/>
  <rect x="489" y="76" width="10" height="10" rx="2" fill="#161b22"/>
  <rect x="489" y="89" width="10" height="10" rx="2" fill="#161b22"/>
  <rect x="489" y="102" width="10" height="10" rx="2" fill="#161b22"/>
  <rect x="502" y="24" width="10" height="10" rx="2" fill="#161b22"/>
  <rect x="502" y="37" width="10" height="10" rx="2" fill="#161b22"/>
  <rect x="502" y="50" width="10" height="10" rx="2" fill="#161b22"/>
  <rect x="502" y="63" width="10" height="10" rx="2" fill="#161b22"/>
  <rect x="502" y="76" width="10" height="10" rx="2" fill="#161b22"/>
  <rect x="502" y="89" width="10" height="10" rx="2" fill="#161b22"/>
  <rect x="502" y="102" width="10" height="10" rx="2" fill="#161b22"/>
  <rect x="515" y="24" width="10" height="10" rx="2" fill="#161b22"/>
  <rect x="515" y="37" width="10" height="10" rx="2" fill="#161b22"/>
  <rect x="515" y="50" width="10" height="10" rx="2" fill="#161b22"/>
  <rect x="515" y="63" width="10" height="10" rx="2" fill="#161b22"/>
  <rect x="515" y="76" width="10" height="10" rx="2" fill="#161b22"/>
  <rect x="515" y="89" width="10" height="10" rx="2" fill="#161b22"/>
  <rect x="515" y="102" width="10" height="10" rx="2" fill="#161b22"/>
  <rect x="528" y="24" width="10" height="10" rx="2" fill="#161b22"/>
  <rect x="528" y="37" width="10" height="10" rx="2" fill="#161b22"/>
  <rect x="528" y="50" width="10" height="10" rx="2" fill="#161b22"/>
  <rect x="528" y="63" width="10" height="10" rx="2" fill="#161b22"/>
  <rect x="528" y="76" width="10" height="10" rx="2" fill="#161b22"/>
  <rect x="528" y="89" width="10" height="10" rx="2" fill="#161b22"/>
  <rect x="528" y="102" width="10" height="10" rx="2" fill="#161b22"/>
  <rect x="541" y="24" width="10" height="10" rx="2" fill="#161b22"/>
  <rect x="541" y="37" width="10" height="10" rx="2" fill="#161b22"/>
  <rect x="541" y="50" width="10" height="10" rx="2" fill="#161b22"/>
  <rect x="541" y="63" width="10" height="10" rx="2" fill="#161b22"/>
  <rect x="541" y="76" width="10" height="10" rx="2" fill="#161b22"/>
  <rect x="541" y="89" width="10" height="10" rx="2" fill="#161b22"/>
  <rect x="541" y="102" width="10" height="10" rx="2" fill="#161b22"/>
  <rect x="554" y="24" width="10" height="10" rx="2" fill="#161b22"/>
  <rect x="554" y="37" width="10" height="10" rx="2" fill="#161b22"/>
  <rect x="554" y="50" width="10" height="10" rx="2" fill="#161b22"/>
  <rect x="554" y="63" width="10" height="10" rx="2" fill="#161b22"/>
  <rect x="554" y="76" width="10" height="10" rx="2" fill="#161b22"/>
  <rect x="554" y="89" width="10" height="10" rx="2" fill="#161b22"/>
  <rect x="554" y="102" width="10" height="10" rx="2" fill="#161b22"/>
  <rect x="567" y="24" width="10" height="10" rx="2" fill="#161b22"/>
  <rect x="567" y="37" width="10" height="10" rx="2" fill="#161b22"/>
  <rect x="567" y="50" width="10" height="10" rx="2" fill="#161b22"/>
  <rect x="567" y="63" width="10" height="10" rx="2" fill="#161b22"/>
  <rect x="567" y="76" width="10" height="10" rx="2" fill="#161b22"/>
  <rect x="567" y="89" width="10" height="10" rx="2" fill="#161b22"/>
  <rect x="567" y="102" width="10" height="10" rx="2" fill="#161b22"/>
  <rect x="580" y="24" width="10" height="10" rx="2" fill="#161b22"/>
  <rect x="580" y="37" width="10" height="10" rx="2" fill="#161b22"/>
  <rect x="580" y="50" width="10" height="10" rx="2" fill="#0e4429"/>
  <rect x="580" y="63" width="10" height="10" rx="2" fill="#161b22"/>
  <rect x="580" y="76" width="10" height="10" rx="2" fill="#161b22"/>
  <rect x="580" y="89" width="10" height="10" rx="2" fill="#161b22"/>
  <rect x="580" y="102" width="10" height="10" rx="2" fill="#161b22"/>
  <rect x="593" y="24" width="10" height="10" rx="2" fill="#161b22"/>
  <rect x="593" y="37" width="10" height="10" rx="2" fill="#161b22"/>
  <rect x="593" y="50" width="10" height="10" rx="2" fill="#161b22"/>
  <rect x="593" y="63" width="10" height="10" rx="2" fill="#161b22"/>
  <rect x="593" y="76" width="10" height="10" rx="2" fill="#161b22"/>
  <rect x="593" y="89" width="10" height="10" rx="2" fill="#161b22"/>
  <rect x="593" y="102" width="10" height="10" rx="2" fill="#161b22"/>
  <rect x="606" y="24" width="10" height="10" rx="2" fill="#161b22"/>
  <rect x="606" y="37" width="10" height="10" rx="2" fill="#161b22"/>
  <rect x="606" y="50" width="10" height="10" rx="2" fill="#161b22"/>
  <rect x="606" y="63" width="10" height="10" rx="2" fill="#161b22"/>
  <rect x="606" y="76" width="10" height="10" rx="2" fill="#161b22"/>
  <rect x="606" y="89" width="10" height="10" rx="2" fill="#161b22"/>
  <rect x="606" y="102" width="10" height="10" rx="2" fill="#161b22"/>
  <rect x="619" y="24" width="10" height="10" rx="2" fill="#161b22"/>
  <rect x="619" y="37" width="10" height="10" rx="2" fill="#161b22"/>
  <rect x="619" y="50" width="10" height="10" rx="2" fill="#161b22"/>
  <rect x="619" y="63" width="10" height="10" rx="2" fill="#161b22"/>
  <rect x="619" y="76" width="10" height="10" rx="2" fill="#161b22"/>
  <rect x="619" y="89" width="10" height="10" rx="2" fill="#161b22"/>
  <rect x="619" y="102" width="10" height="10" rx="2" fill="#161b22"/>
  <rect x="632" y="24" width="10" height="10" rx="2" fill="#161b22"/>
  <rect x="632" y="37" width="10" height="10" rx="2" fill="#161b22"/>
  <rect x="632" y="50" width="10" height="10" rx="2" fill="#161b22"/>
  <rect x="632" y="63" width="10" height="10" rx="2" fill="#161b22"/>
  <rect x="632" y="76" width="10" height="10" rx="2" fill="#161b22"/>
  <rect x="632" y="89" width="10" height="10" rx="2" fill="#161b22"/>
  <rect x="632" y="102" width="10" height="10" rx="2" fill="#161b22"/>
  <rect x="645" y="24" width="10" height="10" rx="2" fill="#161b22"/>
  <rect x="645" y="37" width="10" height="10" rx="2" fill="#161b22"/>
  <rect x="645" y="50" width="10" height="10" rx="2" fill="#161b22"/>
  <rect x="645" y="63" width="10" height="10" rx="2" fill="#161b22"/>
  <rect x="645" y="76" width="10" height="10" rx="2" fill="#161b22"/>
  <rect x="645" y="89" width="10" height="10" rx="2" fill="#161b22"/>
  <rect x="645" y="102" width="10" height="10" rx="2" fill="#161b22"/>
  <rect x="658" y="24" width="10" height="10" rx="2" fill="#161b22"/>
  <rect x="658" y="37" width="10" height="10" rx="2" fill="#161b22"/>
  <rect x="658" y="50" width="10" height="10" rx="2" fill="#161b22"/>
  <rect x="658" y="63" width="10" height="10" rx="2" fill="#161b22"/>
  <rect x="658" y="76" width="10" height="10" rx="2" fill="#161b22"/>
  <rect x="658" y="89" width="10" height="10" rx="2" fill="#161b22"/>
  <rect x="658" y="102" width="10" height="10" rx="2" fill="#26a641"/>
  <rect x="671" y="24" width="10" height="10" rx="2" fill="#161b22"/>
  <rect x="671" y="37" width="10" height="10" rx="2" fill="#161b22"/>
  <rect x="671" y="50" width="10" height="10" rx="2" fill="#161b22"/>
  <rect x="671" y="63" width="10" height="10" rx="2" fill="#161b22"/>
  <rect x="671" y="76" width="10" height="10" rx="2" fill="#161b22"/>
  <rect x="671" y="89" width="10" height="10" rx="2" fill="#161b22"/>
  <rect x="671" y="102" width="10" height="10" rx="2" fill="#161b22"/>
  <rect x="684" y="24" width="10" height="10" rx="2" fill="#006d32"/>
  <rect x="684" y="37" width="10" height="10" rx="2" fill="#161b22"/>
  <rect x="684" y="50" width="10" height="10" rx="2" fill="#161b22"/>
  <rect x="684" y="63" width="10" height="10" rx="2" fill="#161b22"/>
  <rect x="684" y="76" width="10" height="10" rx="2" fill="#161b22"/>
  <rect x="684" y="89" width="10" height="10" rx="2" fill="#161b22"/>
  <rect x="684" y="102" width="10" height="10" rx="2" fill="#161b22"/>
  <rect x="697" y="24" width="10" height="10" rx="2" fill="#161b22"/>
  <rect x="697" y="37" width="10" height="10" rx="2" fill="#161b22"/>
  <rect x="697" y="50" width="10" height="10" rx="2" fill="#161b22"/>
  <rect x="697" y="63" width="10" height="10" rx="2" fill="#006d32"/>
  <rect x="697" y="76" width="10" height="10" rx="2" fill="#26a641"/>
  <rect x="697" y="89" width="10" height="10" rx="2" fill="#39d353"/>
  <rect x="697" y="102" width="10" height="10" rx="2" fill="#39d353"/>
  <rect x="710" y="24" width="10" height="10" rx="2" fill="#39d353"/>
  <rect x="710" y="37" width="10" height="10" rx="2" fill="#161b22"/>
  <rect x="710" y="50" width="10" height="10" rx="2" fill="#161b22"/>
  <rect x="710" y="63" width="10" height="10" rx="2" fill="#161b22"/>
  <rect x="710" y="76" width="10" height="10" rx="2" fill="#161b22"/>
  <rect x="710" y="89" width="10" height="10" rx="2" fill="#161b22"/>
</g>
<g stroke="rgba(220,230,255,0.82)" stroke-linecap="round" stroke-width="1.20" filter="url(#sg)">
  <line x1="351.00" y1="68.00" x2="221.00" y2="29.00" stroke-dasharray="135.7"><animate attributeName="stroke-dashoffset" values="135.7;135.7;0;0" keyTimes="0;0.0342;0.0726;1" dur="23.40s" repeatCount="indefinite" calcMode="linear"/></line>
  <line x1="351.00" y1="68.00" x2="390.00" y2="29.00" stroke-dasharray="55.2"><animate attributeName="stroke-dashoffset" values="55.2;55.2;0;0" keyTimes="0;0.0983;0.1368;1" dur="23.40s" repeatCount="indefinite" calcMode="linear"/></line>
  <line x1="351.00" y1="68.00" x2="416.00" y2="81.00" stroke-dasharray="66.3"><animate attributeName="stroke-dashoffset" values="66.3;66.3;0;0" keyTimes="0;0.1624;0.2009;1" dur="23.40s" repeatCount="indefinite" calcMode="linear"/></line>
  <line x1="351.00" y1="68.00" x2="273.00" y2="94.00" stroke-dasharray="82.2"><animate attributeName="stroke-dashoffset" values="82.2;82.2;0;0" keyTimes="0;0.2265;0.2650;1" dur="23.40s" repeatCount="indefinite" calcMode="linear"/></line>
</g>
<path d="M 305.50,54.35 L 364.65,54.35 L 373.75,72.55 L 323.70,77.10 Z" fill="none" stroke="rgba(220,230,255,0.82)" stroke-width="0.80" stroke-linejoin="round" filter="url(#sg)" stroke-dasharray="158.9"><animate attributeName="stroke-dashoffset" values="158.9;158.9;0;0" keyTimes="0;0.2906;0.4188;1" dur="23.40s" repeatCount="indefinite" calcMode="linear"/></path>
<path d="M 260.00,40.70 L 378.30,40.70 L 396.50,77.10 L 296.40,86.20 Z" fill="none" stroke="rgba(220,230,255,0.82)" stroke-width="0.98" stroke-linejoin="round" filter="url(#sg)" stroke-dasharray="317.8"><animate attributeName="stroke-dashoffset" values="317.8;317.8;0;0" keyTimes="0;0.4487;0.5769;1" dur="23.40s" repeatCount="indefinite" calcMode="linear"/></path>
<path d="M 221.00,29.00 L 390.00,29.00 L 416.00,81.00 L 273.00,94.00 Z" fill="none" stroke="rgba(220,230,255,0.82)" stroke-width="1.16" stroke-linejoin="round" filter="url(#sg)" stroke-dasharray="454.0"><animate attributeName="stroke-dashoffset" values="454.0;454.0;0;0" keyTimes="0;0.6068;0.7350;1" dur="23.40s" repeatCount="indefinite" calcMode="linear"/></path>
<circle cx="351.00" cy="68.00" r="2.6" fill="rgba(255,255,255,0.97)" opacity="0"><animate attributeName="opacity" values="0;0;1;1" keyTimes="0;0.0342;0.0491;1" dur="23.40s" repeatCount="indefinite" calcMode="linear"/></circle>
<circle cx="221.00" cy="29.00" r="2.0" fill="rgba(255,255,255,0.97)" opacity="0"><animate attributeName="opacity" values="0;0;1;1" keyTimes="0;0.0726;0.0846;1" dur="23.40s" repeatCount="indefinite" calcMode="linear"/></circle>
<circle cx="390.00" cy="29.00" r="2.0" fill="rgba(255,255,255,0.97)" opacity="0"><animate attributeName="opacity" values="0;0;1;1" keyTimes="0;0.1368;0.1487;1" dur="23.40s" repeatCount="indefinite" calcMode="linear"/></circle>
<circle cx="416.00" cy="81.00" r="2.0" fill="rgba(255,255,255,0.97)" opacity="0"><animate attributeName="opacity" values="0;0;1;1" keyTimes="0;0.2009;0.2128;1" dur="23.40s" repeatCount="indefinite" calcMode="linear"/></circle>
<circle cx="273.00" cy="94.00" r="2.0" fill="rgba(255,255,255,0.97)" opacity="0"><animate attributeName="opacity" values="0;0;1;1" keyTimes="0;0.2650;0.2769;1" dur="23.40s" repeatCount="indefinite" calcMode="linear"/></circle>
<g filter="url(#sh)" style="animation:sm 23.40s linear infinite">
  <ellipse cx="0" cy="3.0" rx="2.8" ry="3.5" fill="#8a9acf" opacity="0.90"/>
  <circle  cx="0" cy="0"   r="3.5"             fill="#bdd0ff"/>
  <g stroke="#99aadd" stroke-width="1.2" stroke-linecap="round">
    <line x1="0" y1="0" x2="-4.0" y2="-5.0"/>
    <line x1="0" y1="0" x2="-6.0" y2="-1.5"/>
    <line x1="0" y1="0" x2="-6.0" y2="2.0"/>
    <line x1="0" y1="0" x2="-3.8" y2="5.0"/>
    <line x1="0" y1="0" x2="4.0" y2="-5.0"/>
    <line x1="0" y1="0" x2="6.0" y2="-1.5"/>
    <line x1="0" y1="0" x2="6.0" y2="2.0"/>
    <line x1="0" y1="0" x2="3.8" y2="5.0"/>
  </g>
  <circle cx="-1.3" cy="-1.4" r="0.8" fill="white" opacity="0.96"/>
  <circle cx=" 1.3" cy="-1.4" r="0.8" fill="white" opacity="0.96"/>
</g>
</svg>